<svg width="170" height="178" viewBox="0 0 170 178" fill="none" xmlns="http://www.w3.org/2000/svg">
<g clip-path="url(#clip0)">
<path d="M147.43 145.184C147.02 140.817 148.305 136.322 147.541 132.047C146.954 128.744 145.214 125.987 144.642 122.679C143.802 117.775 145.724 112.74 148.176 108.975C149.863 106.38 151.979 104.025 154.503 103.554C156.061 103.253 157.662 103.718 159.1 104.581C160.563 105.472 161.875 106.764 162.954 108.374C164.033 109.985 164.856 111.881 165.372 113.943C165.704 115.284 165.896 116.686 166.305 117.985C167.009 120.224 168.3 122.03 169.103 124.209C169.639 125.685 169.941 127.297 169.991 128.942C170.042 130.586 169.838 132.226 169.394 133.758C168.465 136.911 166.513 139.549 166.225 142.924C166.016 145.356 166.687 148.02 165.815 150.163C165.157 151.78 163.802 152.596 162.519 153.208C159.537 154.617 155.363 156.906 152.372 154.727C149.755 152.822 147.81 149.215 147.43 145.184Z" fill="#E6E6E6"/>
<path d="M155.808 147.016C155.808 147.016 159.08 145.222 159.493 144.213C159.906 143.203 160.483 137.26 160.483 137.26" stroke="#D0CDE1" stroke-width="3" stroke-miterlimit="10"/>
<path d="M155.766 177.299L155.865 133.947" stroke="#D0CDE1" stroke-width="3" stroke-miterlimit="10"/>
<path d="M131.085 130.899C130.609 125.833 132.099 120.619 131.214 115.66C130.532 111.829 128.514 108.63 127.851 104.793C126.878 99.1054 129.105 93.2641 131.951 88.8972C133.907 85.8875 136.362 83.1554 139.29 82.6086C141.097 82.2593 142.954 82.7989 144.623 83.8C146.32 84.8338 147.841 86.3316 149.093 88.2C150.345 90.0685 151.3 92.2675 151.898 94.6598C152.284 96.2145 152.506 97.8399 152.981 99.3481C153.797 101.946 155.294 104.042 156.226 106.567C156.847 108.28 157.198 110.15 157.257 112.057C157.315 113.964 157.079 115.867 156.564 117.644C155.486 121.301 153.222 124.362 152.888 128.276C152.645 131.097 153.424 134.188 152.413 136.672C151.649 138.548 150.077 139.496 148.589 140.204C145.13 141.839 140.289 144.494 136.818 141.966C133.78 139.758 131.525 135.575 131.085 130.899Z" fill="#6C63FF"/>
<path d="M140.753 177.299V117.035" stroke="#333333" stroke-width="3" stroke-miterlimit="10"/>
<path d="M140.801 134.499C140.801 134.499 145.899 131.704 146.542 130.132C147.185 128.56 148.084 119.302 148.084 119.302" stroke="#333333" stroke-width="3" stroke-miterlimit="10"/>
<path d="M119.456 0.0145894L56.5495 0.224097C53.9647 0.232706 51.8744 3.08726 51.8807 6.59993L52.1756 171.143C52.1819 174.655 54.2825 177.496 56.8673 177.487L119.774 177.278C122.359 177.269 124.449 174.415 124.443 170.902L124.148 6.35924C124.141 2.84658 122.041 0.00598066 119.456 0.0145894Z" fill="#2F2E41"/>
<path d="M121.884 167.307C121.887 168.275 121.606 169.204 121.104 169.891C120.602 170.577 119.921 170.965 119.208 170.969L57.4587 171.172C56.7466 171.174 56.0632 170.791 55.5587 170.108C55.0543 169.425 54.7701 168.497 54.7686 167.53L54.7263 142.873L54.4902 9.92535C54.488 8.9576 54.7685 8.02823 55.2703 7.3415C55.7721 6.65477 56.4539 6.26688 57.1661 6.26311L70.0811 6.2219C70.2877 8.05877 70.9707 9.73476 72.0068 10.9474C73.043 12.16 74.3639 12.8293 75.7313 12.8345L100.133 12.7549C101.503 12.7471 102.827 12.0719 103.863 10.852C104.899 9.63197 105.58 7.94785 105.781 6.10487L118.897 6.06086C119.61 6.05957 120.293 6.44257 120.797 7.12566C121.302 7.80876 121.586 8.73606 121.587 9.70376L121.84 142.873L121.884 167.307Z" fill="white"/>
<path d="M121.884 168.984C121.893 169.963 121.615 170.907 121.111 171.609C120.608 172.31 119.92 172.711 119.199 172.723L57.2318 172.931C56.5109 172.924 55.8217 172.528 55.3155 171.831C54.8093 171.133 54.5276 170.191 54.5324 169.211L54.4902 144.036H121.84L121.884 168.984Z" fill="#E6E6E6"/>
<path d="M95.0829 6.42818L79.7291 6.74139C79.5224 6.7456 79.3573 6.9768 79.3604 7.25779L79.3642 7.60883C79.3673 7.88982 79.5375 8.11418 79.7442 8.10996L95.098 7.79676C95.3047 7.79254 95.4698 7.56134 95.4667 7.28036L95.4629 6.92931C95.4598 6.64833 95.2896 6.42397 95.0829 6.42818Z" fill="white"/>
<path d="M98.892 7.71705C99.226 7.71023 99.4928 7.33673 99.4878 6.8828C99.4827 6.42888 99.2079 6.06642 98.8739 6.07323C98.5398 6.08005 98.2731 6.45355 98.2781 6.90748C98.2831 7.36141 98.558 7.72386 98.892 7.71705Z" fill="white"/>
<path d="M68.9883 28.9935H60.2003C59.1147 28.9935 58.2346 30.1895 58.2346 31.6648V43.6071C58.2346 45.0824 59.1147 46.2784 60.2003 46.2784H68.9883C70.0739 46.2784 70.954 45.0824 70.954 43.6071V31.6648C70.954 30.1895 70.0739 28.9935 68.9883 28.9935Z" fill="#E6E6E6"/>
<path d="M84.6888 28.9935H75.9009C74.8153 28.9935 73.9352 30.1895 73.9352 31.6648V43.6071C73.9352 45.0824 74.8153 46.2784 75.9009 46.2784H84.6888C85.7744 46.2784 86.6545 45.0824 86.6545 43.6071V31.6648C86.6545 30.1895 85.7744 28.9935 84.6888 28.9935Z" fill="#E6E6E6"/>
<path d="M100.389 28.9935H91.6015C90.5158 28.9935 89.6357 30.1895 89.6357 31.6648V43.6071C89.6357 45.0824 90.5158 46.2784 91.6015 46.2784H100.389C101.475 46.2784 102.355 45.0824 102.355 43.6071V31.6648C102.355 30.1895 101.475 28.9935 100.389 28.9935Z" fill="#E6E6E6"/>
<path d="M116.09 28.9935H107.302C106.216 28.9935 105.336 30.1895 105.336 31.6648V43.6071C105.336 45.0824 106.216 46.2784 107.302 46.2784H116.09C117.175 46.2784 118.056 45.0824 118.056 43.6071V31.6648C118.056 30.1895 117.175 28.9935 116.09 28.9935Z" fill="#E6E6E6"/>
<path d="M68.9837 54.9036H60.2003C59.1147 54.9036 58.2346 56.0996 58.2346 57.5749V69.5111C58.2346 70.9864 59.1147 72.1824 60.2003 72.1824H68.9837C70.0694 72.1824 70.9495 70.9864 70.9495 69.5111V57.5749C70.9495 56.0996 70.0694 54.9036 68.9837 54.9036Z" fill="#6C63FF"/>
<path d="M84.6785 54.9036H75.895C74.8094 54.9036 73.9293 56.0996 73.9293 57.5749V69.5111C73.9293 70.9864 74.8094 72.1824 75.895 72.1824H84.6785C85.7641 72.1824 86.6442 70.9864 86.6442 69.5111V57.5749C86.6442 56.0996 85.7641 54.9036 84.6785 54.9036Z" fill="#E6E6E6"/>
<path d="M100.373 54.9036H91.59C90.5044 54.9036 89.6243 56.0996 89.6243 57.5749V69.5111C89.6243 70.9864 90.5044 72.1824 91.59 72.1824H100.373C101.459 72.1824 102.339 70.9864 102.339 69.5111V57.5749C102.339 56.0996 101.459 54.9036 100.373 54.9036Z" fill="#E6E6E6"/>
<path d="M116.068 54.9036H107.285C106.199 54.9036 105.319 56.0996 105.319 57.5749V69.5111C105.319 70.9864 106.199 72.1824 107.285 72.1824H116.068C117.154 72.1824 118.034 70.9864 118.034 69.5111V57.5749C118.034 56.0996 117.154 54.9036 116.068 54.9036Z" fill="#E6E6E6"/>
<path d="M68.9883 80.8481H60.2003C59.1147 80.8481 58.2346 82.0441 58.2346 83.5195V95.4617C58.2346 96.937 59.1147 98.133 60.2003 98.133H68.9883C70.0739 98.133 70.954 96.937 70.954 95.4617V83.5195C70.954 82.0441 70.0739 80.8481 68.9883 80.8481Z" fill="#E6E6E6"/>
<path d="M84.6888 80.8481H75.9009C74.8153 80.8481 73.9352 82.0441 73.9352 83.5195V95.4617C73.9352 96.937 74.8153 98.133 75.9009 98.133H84.6888C85.7744 98.133 86.6545 96.937 86.6545 95.4617V83.5195C86.6545 82.0441 85.7744 80.8481 84.6888 80.8481Z" fill="#E6E6E6"/>
<path d="M100.389 80.8481H91.6015C90.5158 80.8481 89.6357 82.0441 89.6357 83.5195V95.4617C89.6357 96.937 90.5158 98.133 91.6015 98.133H100.389C101.475 98.133 102.355 96.937 102.355 95.4617V83.5195C102.355 82.0441 101.475 80.8481 100.389 80.8481Z" fill="#E6E6E6"/>
<path d="M116.09 80.8481H107.302C106.216 80.8481 105.336 82.0441 105.336 83.5195V95.4617C105.336 96.937 106.216 98.133 107.302 98.133H116.09C117.175 98.133 118.056 96.937 118.056 95.4617V83.5195C118.056 82.0441 117.175 80.8481 116.09 80.8481Z" fill="#E6E6E6"/>
<path d="M68.9883 106.776H60.2003C59.1147 106.776 58.2346 107.971 58.2346 109.447V121.389C58.2346 122.864 59.1147 124.06 60.2003 124.06H68.9883C70.0739 124.06 70.954 122.864 70.954 121.389V109.447C70.954 107.971 70.0739 106.776 68.9883 106.776Z" fill="#E6E6E6"/>
<path d="M84.6888 106.776H75.9009C74.8153 106.776 73.9352 107.971 73.9352 109.447V121.389C73.9352 122.864 74.8153 124.06 75.9009 124.06H84.6888C85.7744 124.06 86.6545 122.864 86.6545 121.389V109.447C86.6545 107.971 85.7744 106.776 84.6888 106.776Z" fill="#E6E6E6"/>
<path d="M100.389 106.776H91.6015C90.5158 106.776 89.6357 107.971 89.6357 109.447V121.389C89.6357 122.864 90.5158 124.06 91.6015 124.06H100.389C101.475 124.06 102.355 122.864 102.355 121.389V109.447C102.355 107.971 101.475 106.776 100.389 106.776Z" fill="#E6E6E6"/>
<path d="M116.09 106.776H107.302C106.216 106.776 105.336 107.971 105.336 109.447V121.389C105.336 122.864 106.216 124.06 107.302 124.06H116.09C117.175 124.06 118.056 122.864 118.056 121.389V109.447C118.056 107.971 117.175 106.776 116.09 106.776Z" fill="#E6E6E6"/>
<path d="M68.5311 149.646H59.2521C58.1665 149.646 57.2864 150.841 57.2864 152.317V164.926C57.2864 166.402 58.1665 167.598 59.2521 167.598H68.5311C69.6167 167.598 70.4968 166.402 70.4968 164.926V152.317C70.4968 150.841 69.6167 149.646 68.5311 149.646Z" fill="#6C63FF"/>
<path d="M84.8376 149.646H75.5586C74.473 149.646 73.5929 150.841 73.5929 152.317V164.926C73.5929 166.402 74.473 167.598 75.5586 167.598H84.8376C85.9232 167.598 86.8033 166.402 86.8033 164.926V152.317C86.8033 150.841 85.9232 149.646 84.8376 149.646Z" fill="#6C63FF"/>
<path d="M101.144 149.646H91.8654C90.7797 149.646 89.8997 150.841 89.8997 152.317V164.926C89.8997 166.402 90.7797 167.598 91.8654 167.598H101.144C102.23 167.598 103.11 166.402 103.11 164.926V152.317C103.11 150.841 102.23 149.646 101.144 149.646Z" fill="#6C63FF"/>
<path d="M117.451 149.646H108.172C107.086 149.646 106.206 150.841 106.206 152.317V164.926C106.206 166.402 107.086 167.598 108.172 167.598H117.451C118.537 167.598 119.417 166.402 119.417 164.926V152.317C119.417 150.841 118.537 149.646 117.451 149.646Z" fill="#6C63FF"/>
<path d="M55.1318 60.5937V64.5284L51.682 71.3975L55.1318 74.4489C55.1318 74.4489 56.665 66.4212 57.4917 65.4763C57.4917 65.4763 58.7901 64.2175 59.4966 62.4862C60.2031 60.755 59.8499 54.7725 56.4284 60.1243V60.7545L55.1318 60.5937Z" fill="#FDA57D"/>
<path d="M28.2573 67.69L29.624 63.9774C29.6637 63.868 29.7242 63.7751 29.7991 63.708C29.8741 63.6409 29.9608 63.6022 30.0504 63.5958L35.2381 63.2358C35.3224 63.2297 35.4065 63.2524 35.4827 63.3019C35.5588 63.3513 35.6247 63.4259 35.6742 63.5188C35.7237 63.6117 35.7553 63.72 35.7661 63.8338C35.7769 63.9476 35.7666 64.0633 35.7361 64.1702L34.3977 68.8722C34.3581 69.0114 34.2863 69.1292 34.1931 69.208C34.0999 69.2867 33.9903 69.3221 33.881 69.3088L28.6669 68.6781C28.585 68.6684 28.5061 68.6318 28.437 68.5713C28.3678 68.5108 28.3106 68.4283 28.2703 68.3309C28.2299 68.2336 28.2076 68.1243 28.2054 68.0126C28.2031 67.9009 28.221 67.7902 28.2573 67.69Z" fill="#FDA57D"/>
<path d="M28.6411 66.0968L27.7599 69.6077L36.8088 69.166L33.3328 66.3319L28.6411 66.0968Z" fill="#EDEEF9"/>
<path d="M25.0237 104.466C25.3872 106.895 25.1733 109.419 24.4131 111.672C23.14 115.293 23.14 119.077 24.7607 123.479L25.2248 146.306C25.2248 146.306 25.8035 157.012 25.2248 159.215C24.6461 161.419 25.4521 171.969 25.4521 171.969H31.9401V164.884L34.1404 143.946V133.238L38.0861 144.416L33.5765 170.236L39.4838 173.543L46.8974 144.575C46.8974 144.575 45.6122 121.748 40.9787 113.879L40.1068 105.297L25.0237 104.466Z" fill="#3F3D56"/>
<path d="M25.3395 177.285V171.461H31.9421C31.9421 171.461 32.4062 173.823 35.418 174.295C38.4299 174.767 34.0276 177.602 34.0276 177.602L25.3395 177.285Z" fill="#3F3D56"/>
<path d="M32.6591 174.677L33.8085 169.059L39.5254 171.527C39.5254 171.527 40.15 173.912 42.9589 175.464C44.8718 176.521 42.788 177.737 42.788 177.737L42.0359 178.001L32.6591 174.677Z" fill="#3F3D56"/>
<path opacity="0.1" d="M40.1076 105.768L25.0217 104.938C25.2086 106.161 25.2473 107.417 25.1363 108.656C25.8258 110.862 27.3065 110.259 27.3065 110.259L40.506 109.707L40.1076 105.768Z" fill="black"/>
<path d="M28.0622 68.3002L27.4609 68.8543C25.6414 70.5291 24.22 72.8873 23.3702 75.6414C22.5204 78.3954 22.2789 81.4261 22.6752 84.3635C22.6752 84.3635 26.0347 93.3001 24.992 102.237C23.9492 111.174 27.3087 109.795 27.3087 109.795L40.5736 109.24L41.5582 82.1361C41.5582 82.1361 49.5512 83.6809 53.1436 79.9019L56.0392 73.8896L51.6369 69.7608L50.1345 72.6812C50.1345 72.6812 45.4168 71.328 42.8254 69.8979C41.6168 69.2278 40.3306 68.8535 39.0261 68.7923L28.0622 68.3002Z" fill="#6C63FF"/>
<path opacity="0.1" d="M28.1783 111.909C28.1783 111.909 27.3665 117.42 32.0019 126.55L28.1783 111.909Z" fill="black"/>
<path opacity="0.1" d="M41.611 82.1549C41.611 82.1549 47.1712 79.6363 49.604 79.6363C52.0368 79.6363 51.6313 81.0635 51.6313 81.0635C51.6313 81.0635 47.7569 83.4138 41.611 82.1549Z" fill="black"/>
<path opacity="0.1" d="M35.311 63.5561L33.0976 63.916C33.0281 63.916 32.9641 64.0463 32.9266 64.2325C33.4134 65.4249 34.022 66.1348 34.6834 66.1348C34.9194 66.1301 35.1505 66.0424 35.3542 65.8803L35.5227 64.4887C35.5796 64.0259 35.4669 63.5306 35.311 63.5561Z" fill="black"/>
<path d="M33.7664 65.8185C37.498 65.8185 40.5231 61.7076 40.5231 56.6366C40.5231 51.5655 37.498 47.4547 33.7664 47.4547C30.0348 47.4547 27.0098 51.5655 27.0098 56.6366C27.0098 61.7076 30.0348 65.8185 33.7664 65.8185Z" fill="#FDA57D"/>
<path opacity="0.1" d="M39.5142 51.4377L39.1684 51.8615C39.0235 52.0418 38.9145 52.2687 38.8512 52.5213C38.7879 52.774 38.7726 53.0442 38.8065 53.3071C38.8404 53.57 38.9224 53.817 39.0452 54.0254C39.1679 54.2337 39.3272 54.3967 39.5085 54.4993C39.5085 54.4993 36.4815 58.6128 36.0607 59.3763C35.6398 60.1398 36.1301 62.1494 36.1301 62.1494C36.1301 62.1494 37.4679 65.4969 30.4295 64.7309C30.4295 64.7309 25.7848 63.3929 26.2772 54.8801C26.326 54.0273 25.2926 51.816 28.3891 50.6722C28.4819 49.4772 28.8458 48.3511 29.4306 47.4498C30.0154 46.5485 30.792 45.9167 31.6528 45.642C32.8498 45.2374 34.0861 45.0901 35.3167 45.2054C36.4633 45.3421 37.5305 46.0581 38.3076 47.2119C39.0847 48.3657 39.5152 49.8736 39.5142 51.4377Z" fill="black"/>
<path d="M39.6605 50.9373C39.6605 50.9373 40.3783 51.2385 40.4122 54.438L39.3919 54.3436C39.3919 54.3436 37.0319 62.9228 37.2799 61.8044C38.195 57.6909 36.3649 58.4569 35.9421 59.2229C35.5194 59.9889 36.0116 61.996 36.0116 61.996C36.0116 61.996 37.3494 65.3435 30.311 64.5775C30.311 64.5775 25.6663 63.2395 26.1586 54.7267C26.2075 53.8739 25.1741 51.6626 28.2706 50.5188C28.3626 49.3245 28.7255 48.1986 29.3091 47.2969C29.8927 46.3952 30.6681 45.7624 31.528 45.486C32.7251 45.0814 33.9614 44.9341 35.192 45.0495C37.575 45.3224 39.6605 47.6996 39.6605 50.9373Z" fill="#72351C"/>
<path d="M6.97225 177.301C6.97225 177.301 4.02179 163.69 7.53388 153.672C9.02208 149.483 9.47074 144.752 8.81254 140.188C8.48712 138.024 8.01649 135.905 7.40658 133.858" stroke="#D0CDE1" stroke-width="2" stroke-miterlimit="10"/>
<path d="M9.5821 127.518C9.5821 129.187 7.3599 134.023 7.3599 134.023C7.3599 134.023 5.1377 129.19 5.1377 127.518C5.1377 126.717 5.37191 125.949 5.78883 125.382C6.20575 124.815 6.77122 124.497 7.36084 124.497C7.95045 124.497 8.51592 124.815 8.93284 125.382C9.34976 125.949 9.58398 126.717 9.58398 127.518H9.5821Z" fill="#E6E6E6"/>
<path d="M13.4405 136.758C12.774 138.158 8.97363 140.575 8.97363 140.575C8.97363 140.575 9.0429 134.873 9.70937 133.471C10.0299 132.799 10.5338 132.327 11.1103 132.16C11.6868 131.992 12.2886 132.143 12.7834 132.578C13.2782 133.014 13.6254 133.699 13.7486 134.482C13.8718 135.266 13.761 136.083 13.4405 136.756V136.758Z" fill="#E6E6E6"/>
<path d="M13.0941 152.55C11.9989 153.313 7.81848 152.781 7.81848 152.781C7.81848 152.781 9.99575 147.907 11.0928 147.154C11.6191 146.793 12.2293 146.731 12.7891 146.982C13.3489 147.233 13.8125 147.775 14.0779 148.49C14.3433 149.206 14.3887 150.035 14.2042 150.796C14.0197 151.556 13.6204 152.186 13.0941 152.547V152.55Z" fill="#E6E6E6"/>
<path d="M10.9917 164.461C10.0051 165.453 5.82092 165.901 5.82092 165.901C5.82092 165.901 7.36168 160.596 8.34828 159.604C8.58295 159.368 8.8495 159.198 9.13272 159.102C9.41595 159.006 9.7103 158.987 9.99897 159.045C10.2876 159.104 10.565 159.24 10.8151 159.444C11.0653 159.648 11.2834 159.918 11.4569 160.236C11.6305 160.555 11.7562 160.918 11.8267 161.303C11.8973 161.687 11.9113 162.087 11.8682 162.48C11.825 162.872 11.7253 163.249 11.5749 163.589C11.4246 163.929 11.2264 164.225 10.9917 164.461Z" fill="#E6E6E6"/>
<path d="M4.11923 140.903C4.99912 142.065 9.10281 143.269 9.10281 143.269C9.10281 143.269 8.09748 137.73 7.21758 136.57C6.79114 136.044 6.23106 135.763 5.65538 135.788C5.07971 135.812 4.53341 136.139 4.13165 136.699C3.72989 137.26 3.50404 138.011 3.50173 138.794C3.49941 139.577 3.7208 140.33 4.11923 140.895V140.903Z" fill="#E6E6E6"/>
<path d="M1.79213 154.875C2.88732 155.638 7.06776 155.106 7.06776 155.106C7.06776 155.106 4.89049 150.232 3.79342 149.479C3.53282 149.3 3.24889 149.193 2.95784 149.164C2.66679 149.134 2.37432 149.183 2.09712 149.307C1.81993 149.431 1.56344 149.628 1.34231 149.887C1.12118 150.146 0.939735 150.462 0.808328 150.816C0.676921 151.17 0.598127 151.556 0.57645 151.951C0.554774 152.347 0.590643 152.744 0.681997 153.121C0.773351 153.498 0.918403 153.846 1.10888 154.147C1.29936 154.447 1.53153 154.694 1.79213 154.872V154.875Z" fill="#E6E6E6"/>
<path d="M0.901038 168.875C1.88764 169.867 6.07183 170.315 6.07183 170.315C6.07183 170.315 4.53108 165.011 3.54447 164.018C3.3098 163.783 3.04325 163.612 2.76003 163.516C2.4768 163.42 2.18246 163.401 1.8938 163.46C1.60513 163.518 1.32779 163.654 1.07763 163.858C0.827475 164.062 0.609389 164.332 0.435819 164.651C0.262249 164.97 0.136591 165.332 0.0660346 165.717C-0.0045213 166.102 -0.0185977 166.502 0.0246021 166.894C0.0678019 167.286 0.167439 167.663 0.317818 168.003C0.468196 168.343 0.666374 168.639 0.901038 168.875Z" fill="#E6E6E6"/>
<path d="M169.92 177.411H0.0114746V177.824H169.92V177.411Z" fill="#2F2E41"/>
</g>
<defs>
<clipPath id="clip0">
<rect width="170" height="178" fill="white"/>
</clipPath>
</defs>
</svg>

