<svg width="211" height="176" viewBox="0 0 211 176" fill="none" xmlns="http://www.w3.org/2000/svg">
<path opacity="0.1" d="M194.822 139.173C194.587 139.967 194.353 140.75 194.119 141.523C193.755 142.723 193.395 143.901 193.039 145.055C192.881 145.566 192.723 146.068 192.569 146.569C190.827 152.15 189.2 157.085 187.818 161.144C186.564 164.821 184.702 167.903 182.427 170.065C180.152 172.228 177.548 173.391 174.888 173.435L144.16 173.959H143.835L141.201 174.003L138.948 174.041L132.038 174.159H131.759L128.241 174.219H128.134L106.453 174.587L87.0997 174.905L84.8485 174.943L70.8672 175.181H70.851L61.7834 175.334H61.6861L33.0144 175.82L24.4371 175.966C22.6067 175.998 20.7841 175.589 19.0331 174.753C15.986 173.31 13.2475 170.592 11.1124 166.892C7.42858 160.531 4.74377 153.109 2.94039 145.055C2.67967 143.892 2.43652 142.715 2.21093 141.523C-4.03202 108.446 3.57866 65.7709 17.2763 37.213C17.8504 36.0189 18.434 34.8544 19.027 33.7195L19.0412 33.6941C23.2538 25.5891 27.977 18.8181 33.0083 14.0034C41.9239 5.45698 51.802 3.04964 61.518 10.224C69.7385 16.2964 77.4141 19.1516 84.8546 19.9265C85.6063 20.0027 86.3581 20.0599 87.1058 20.0948C104.173 20.9364 120.168 11.2975 138.952 5.07587C139.7 4.82815 140.449 4.58361 141.205 4.35176C154.605 0.172253 169.47 -2.03183 187.147 2.60183C188.984 3.07208 190.796 3.75141 192.569 4.63442C193.349 5.02824 194.1 5.45169 194.822 5.90479C203.26 11.2848 207.862 21.2254 209.817 33.6814C210.002 34.8374 210.162 36.0136 210.297 37.2098C213.764 67.1715 203.61 109.672 194.822 139.173Z" fill="#6C63FF"/>
<g opacity="0.1">
<path opacity="0.1" d="M31.0007 13.8953V173.948L22.9825 174.092C21.2714 174.124 19.5675 173.72 17.9307 172.892V33.3671H17.9439C21.882 25.3428 26.2974 18.647 31.0007 13.8953Z" fill="#6C63FF"/>
<path opacity="0.1" d="M196.743 36.8469H16.294C16.8307 35.6661 17.3762 34.5145 17.9306 33.3922V33.3671H196.294C196.467 34.504 196.617 35.664 196.743 36.8469Z" fill="#6C63FF"/>
<path opacity="0.1" d="M182.268 5.88978V139.994H181.611C181.27 141.181 180.933 142.346 180.601 143.487C180.453 143.992 180.305 144.489 180.161 144.985V4.62097C180.89 5.01041 181.592 5.43334 182.268 5.88978Z" fill="#6C63FF"/>
<path opacity="0.1" d="M132.145 4.34149V172.129L130.039 172.167V5.05755C130.738 4.81258 131.439 4.57076 132.145 4.34149Z" fill="#6C63FF"/>
<path opacity="0.1" d="M81.572 19.9096V173.04L79.4675 173.078V19.7431C80.1703 19.8185 80.873 19.8624 81.572 19.9096Z" fill="#6C63FF"/>
<path opacity="0.1" d="M181.61 139.997C181.27 141.185 180.933 142.349 180.601 143.49H2.89254C2.64882 142.34 2.42152 141.176 2.21063 139.997H181.61Z" fill="#6C63FF"/>
</g>
<path d="M46.7259 84.4255H42.876V102.738H46.7259V84.4255Z" fill="#3F3D56"/>
<path d="M150.335 83.4727H146.485V102.846H150.335V83.4727Z" fill="#3F3D56"/>
<path d="M174.888 169.483V173.612L144.105 174.056L143.776 174.066L132.077 174.234L131.797 174.241L128.241 174.288H128.136L106.458 174.603L70.875 175.12H70.8446L61.7973 175.254L61.7001 175.257L21.4988 175.835V171.071L30.9514 162.178L49.9173 161.931L50.3225 161.927L50.4563 161.924L50.8615 161.915L59.9676 161.797L60.3749 161.794L60.5046 161.791L60.9098 161.788L63.8297 161.75L63.9067 161.746L71.1101 161.651H71.1688L127.378 160.908L128.754 160.892H128.891L129.941 160.876L137.57 160.778L137.975 160.768L138.35 160.762H138.545L140.917 160.733L141.387 160.724L142.018 160.717L143.993 160.689L147.128 160.648L147.533 160.641L148.238 160.635H148.37L163.508 160.432L174.888 169.483Z" fill="#65617D"/>
<path opacity="0.2" d="M174.888 169.483V173.612L144.105 174.056L143.776 174.066L132.077 174.234L131.797 174.241L128.241 174.288H128.136L106.458 174.603L70.875 175.12H70.8446L61.7973 175.254L61.7001 175.257L21.4988 175.835V171.071L30.9514 162.178L49.9173 161.931L50.3225 161.927L50.4563 161.924L50.8615 161.915L59.9676 161.797L60.3749 161.794L60.5046 161.791L60.9098 161.788L63.8297 161.75L63.9067 161.746L71.1101 161.651H71.1688L127.378 160.908L128.754 160.892H128.891L129.941 160.876L137.57 160.778L137.975 160.768L138.35 160.762H138.545L140.917 160.733L141.387 160.724L142.018 160.717L143.993 160.689L147.128 160.648L147.533 160.641L148.238 160.635H148.37L163.508 160.432L174.888 169.483Z" fill="black"/>
<path d="M59.998 153.607V161.384C59.9981 161.753 59.9315 162.114 59.806 162.425C59.6805 162.737 59.5011 162.986 59.2888 163.144C59.1307 163.264 58.9579 163.329 58.7822 163.334L51.7105 163.569C51.5217 163.577 51.3344 163.515 51.1634 163.388C50.9474 163.233 50.7644 162.984 50.6361 162.67C50.5079 162.357 50.4398 161.992 50.4401 161.619V153.607H59.998Z" fill="#3F3D56"/>
<path opacity="0.1" d="M59.998 153.607V161.384C59.9981 161.753 59.9315 162.114 59.806 162.425C59.6805 162.737 59.5011 162.986 59.2888 163.144C59.1307 163.264 58.9579 163.329 58.7822 163.334L51.7105 163.569C51.5217 163.577 51.3344 163.515 51.1634 163.388C50.9474 163.233 50.7644 162.984 50.6361 162.67C50.5079 162.357 50.4398 161.992 50.4401 161.619V153.607H59.998Z" fill="black"/>
<path d="M60.4033 153.607V161.384C60.4034 161.753 60.3368 162.114 60.2113 162.425C60.0857 162.737 59.9064 162.986 59.6941 163.144C59.536 163.264 59.3632 163.329 59.1875 163.334L52.1158 163.569C51.927 163.577 51.7396 163.515 51.5687 163.388C51.3527 163.233 51.1696 162.984 51.0414 162.67C50.9131 162.357 50.8451 161.992 50.8453 161.619V153.607H60.4033Z" fill="#3F3D56"/>
<path d="M147.533 153.607H137.975V163.611H147.533V153.607Z" fill="#3F3D56"/>
<path opacity="0.1" d="M147.533 153.607H137.975V163.611H147.533V153.607Z" fill="black"/>
<path d="M147.128 153.607H137.57V163.611H147.128V153.607Z" fill="#3F3D56"/>
<path opacity="0.1" d="M46.7259 84.4224V86.2422L42.876 86.0865V84.4224H46.7259Z" fill="black"/>
<path d="M72.0665 33.1567L67.4405 85.2417C67.4111 85.5744 67.3046 85.8785 67.1413 86.0959C66.9779 86.3132 66.7692 86.4286 66.555 86.42L29.5147 84.9146L28.8116 84.886C28.6892 84.8815 28.5687 84.8366 28.4581 84.7541C28.3475 84.6717 28.2493 84.5537 28.1697 84.4078C28.0902 84.2618 28.0312 84.0913 27.9965 83.9072C27.9619 83.7231 27.9524 83.5296 27.9687 83.3394L33.162 28.8152C33.1955 28.4774 33.3085 28.1716 33.4789 27.9582C33.6492 27.7448 33.8644 27.6392 34.0819 27.6623L71.2559 31.6068C71.3759 31.6177 71.4931 31.6674 71.6001 31.7529C71.7072 31.8383 71.8018 31.9576 71.8779 32.1033C71.9541 32.2489 72.0102 32.4177 72.0426 32.599C72.0751 32.7803 72.0832 32.9702 72.0665 33.1567Z" fill="#65617D"/>
<path d="M35.6482 31.4924L31.7314 79.5536L65.7729 81.2464L69.9591 34.878L35.6482 31.4924Z" fill="#6C63FF"/>
<path d="M118.322 30.7493H79.0105C78.4141 30.7493 77.9305 31.5071 77.9305 32.442V84.1047C77.9305 85.0396 78.4141 85.7975 79.0105 85.7975H118.322C118.919 85.7975 119.402 85.0396 119.402 84.1047V32.442C119.402 31.5071 118.919 30.7493 118.322 30.7493Z" fill="#65617D"/>
<path d="M117.577 34.4556H79.8879V80.2936H117.577V34.4556Z" fill="#6C63FF"/>
<path opacity="0.1" d="M150.335 83.4696V84.6733L146.485 84.7971V83.4696H150.335Z" fill="black"/>
<path d="M167.707 82.4533C167.712 82.5849 167.701 82.7168 167.673 82.8412C167.645 82.9657 167.601 83.08 167.544 83.1773C167.488 83.2746 167.419 83.3529 167.342 83.4075C167.266 83.4621 167.183 83.4918 167.099 83.495L129.167 84.7241C129.009 84.7292 128.856 84.6406 128.739 84.4763C128.621 84.3119 128.547 84.0839 128.533 83.838L125.272 30.7112C125.264 30.5794 125.273 30.4464 125.299 30.3202C125.325 30.1941 125.367 30.0775 125.422 29.9774C125.477 29.8773 125.545 29.7959 125.621 29.7381C125.697 29.6802 125.78 29.6472 125.864 29.6409L163.508 26.7063L163.913 26.6746C164.075 26.6613 164.233 26.7466 164.354 26.9125C164.476 27.0784 164.552 27.3119 164.566 27.5638L167.707 82.4533Z" fill="#65617D"/>
<path d="M127.438 32.7628L161.818 30.1141L164.722 78.3881L130.614 79.6584L127.438 32.7628Z" fill="#6C63FF"/>
<path opacity="0.1" d="M167.707 82.4533C167.712 82.5848 167.701 82.7168 167.673 82.8412C167.645 82.9656 167.601 83.0799 167.544 83.1772C167.488 83.2745 167.419 83.3529 167.342 83.4075C167.266 83.4621 167.183 83.4918 167.099 83.495L163.508 26.7063L163.913 26.6746C164.075 26.6613 164.233 26.7466 164.354 26.9125C164.476 27.0784 164.552 27.3119 164.566 27.5638L167.707 82.4533Z" fill="black"/>
<path opacity="0.1" d="M34.088 27.6591L29.5147 84.9146L28.8116 84.886C28.6892 84.8815 28.5687 84.8365 28.4581 84.7541C28.3475 84.6717 28.2493 84.5537 28.1697 84.4078C28.0902 84.2618 28.0312 84.0912 27.9965 83.9071C27.9619 83.7231 27.9524 83.5296 27.9687 83.3394L33.162 28.8151C33.1951 28.4751 33.3088 28.1671 33.4805 27.9528C33.6522 27.7385 33.8691 27.6336 34.088 27.6591Z" fill="black"/>
<path opacity="0.1" d="M46.7259 97.3134H42.876V102.738H46.7259V97.3134Z" fill="black"/>
<path opacity="0.1" d="M60.4033 153.603V155.182L50.8453 155.582V153.603H60.4033Z" fill="black"/>
<path d="M77.272 99.2031V152.622C77.2696 152.948 77.1872 153.26 77.042 153.494C76.8968 153.727 76.6998 153.864 76.4919 153.877L37.6583 155.496H37.6482C37.4368 155.492 37.2347 155.359 37.0852 155.124C36.9356 154.89 36.8505 154.573 36.8478 154.242V99.2031C36.8505 98.8717 36.9356 98.555 37.0852 98.3206C37.2347 98.0862 37.4368 97.9527 37.6482 97.9486H76.4716C76.6831 97.9527 76.8852 98.0862 77.0347 98.3206C77.1842 98.555 77.2694 98.8717 77.272 99.2031Z" fill="#65617D"/>
<path opacity="0.1" d="M37.6584 97.9486V155.496H37.6482C37.4368 155.492 37.2347 155.359 37.0852 155.124C36.9356 154.89 36.8505 154.573 36.8478 154.242V99.2031C36.8505 98.8717 36.9356 98.555 37.0852 98.3206C37.2347 98.0862 37.4368 97.9527 37.6482 97.9486H37.6584Z" fill="black"/>
<path d="M39.4313 101.359H75.3977V148.443L39.4313 149.713V101.359Z" fill="#D4DFEC"/>
<path opacity="0.1" d="M150.335 97.3134H146.485V102.846H150.335V97.3134Z" fill="black"/>
<path opacity="0.1" d="M147.128 153.603V155.639L137.57 155.239V153.603H147.128Z" fill="black"/>
<path d="M159.741 99.2031V154.242C159.739 154.576 159.652 154.895 159.5 155.13C159.349 155.365 159.144 155.496 158.931 155.496L120.089 153.877C119.881 153.864 119.684 153.727 119.539 153.494C119.394 153.26 119.311 152.948 119.309 152.622V99.2031C119.312 98.8717 119.397 98.555 119.546 98.3206C119.696 98.0862 119.898 97.9527 120.109 97.9486H158.933C159.146 97.9494 159.35 98.0814 159.501 98.3162C159.652 98.5509 159.739 98.8695 159.741 99.2031Z" fill="#65617D"/>
<path opacity="0.1" d="M159.741 99.2031V154.242C159.739 154.576 159.652 154.895 159.5 155.13C159.349 155.365 159.144 155.496 158.931 155.496V97.9486C159.144 97.9486 159.349 98.0802 159.5 98.3151C159.652 98.5499 159.739 98.8689 159.741 99.2031Z" fill="black"/>
<path d="M157.158 101.359H121.191V148.443L157.158 149.713V101.359Z" fill="#D4DFEC"/>
<path d="M118.304 99.2031V152.622C118.302 152.948 118.219 153.26 118.074 153.494C117.929 153.727 117.732 153.864 117.524 153.877L78.6904 155.496C78.4772 155.496 78.2725 155.365 78.1208 155.13C77.9691 154.895 77.8825 154.576 77.8799 154.242V99.2031C77.8825 98.8717 77.9677 98.555 78.1172 98.3206C78.2667 98.0862 78.4688 97.9527 78.6803 97.9486H117.504C117.715 97.9527 117.917 98.0862 118.067 98.3206C118.216 98.555 118.301 98.8717 118.304 99.2031Z" fill="#65617D"/>
<path d="M80.4634 101.359H116.43V148.443L80.4634 149.713V101.359Z" fill="#D4DFEC"/>
<path opacity="0.1" d="M174.888 169.483V173.612L144.105 174.056L143.776 174.066L132.077 174.234L131.797 174.241L128.241 174.288H128.136L106.458 174.603L70.875 175.12H70.8446L61.7973 175.254L61.7001 175.257L21.4988 175.835V171.071L62.5329 170.649H62.6301L70.9358 170.56H70.9743L128.334 169.966H128.393L128.427 169.963H128.523L129.493 169.953H129.789L144.883 169.794L145.774 169.788L145.973 169.785L174.888 169.483Z" fill="black"/>
<path d="M98.7323 102.738C104.477 102.738 109.133 95.4392 109.133 86.4359C109.133 77.4325 104.477 70.1339 98.7323 70.1339C92.988 70.1339 88.3314 77.4325 88.3314 86.4359C88.3314 95.4392 92.988 102.738 98.7323 102.738Z" fill="#FBBEBE"/>
<path d="M109.135 119.783C109.135 119.783 88.9738 123.594 90.8987 119.783C91.5958 118.405 91.7883 114.32 91.7498 109.668C91.7376 108.254 91.7052 106.79 91.6586 105.333C91.4357 98.3456 90.8987 91.5174 90.8987 91.5174C90.8987 91.5174 108.527 78.4961 106.501 88.8178C105.691 92.9878 105.956 98.8442 106.572 104.342C106.752 105.946 106.961 107.518 107.18 109.01C107.714 112.651 108.367 116.247 109.135 119.783Z" fill="#FBBEBE"/>
<path opacity="0.1" d="M109.135 119.783C109.135 119.783 88.9738 123.594 90.8987 119.783C91.5958 118.405 91.7883 114.32 91.7498 109.668C94.8236 107.61 98.7343 109.144 98.7343 109.144C102.852 107.857 105.492 108.108 107.18 109.01C107.714 112.651 108.367 116.247 109.135 119.783Z" fill="black"/>
<path d="M70.8669 175.479V175.212L106.452 174.606L128.133 174.288H128.194L128.172 174.758L128.202 174.288H128.241V174.234L128.518 169.963L128.624 168.346L128.656 167.841L128.685 167.419L129.937 160.873L131.189 154.337L132.243 148.833L133.852 140.423C133.852 140.423 132.94 137.089 132.433 136.136C131.927 135.183 131.42 128.672 131.42 128.672C131.42 128.672 127.096 122.216 125.205 121.473C124.413 121.155 122.849 120.733 121.187 120.202C120.565 120.005 119.927 119.796 119.313 119.567C118.967 119.443 118.626 119.313 118.3 119.183C117.665 118.934 117.039 118.631 116.426 118.274C116.104 118.091 115.798 117.847 115.514 117.547C114.025 115.835 110.292 115.642 110.148 115.642C110.148 115.634 110.148 115.627 110.148 115.619V115.591C110.153 115.458 110.153 115.324 110.148 115.191C110.148 115.064 110.148 114.914 110.13 114.746C110.13 114.695 110.13 114.641 110.116 114.587C110.106 114.473 110.094 114.352 110.075 114.225C110.069 114.168 110.061 114.112 110.051 114.057C109.992 113.674 109.907 113.303 109.798 112.948C109.784 112.898 109.765 112.844 109.749 112.793C109.65 112.499 109.534 112.22 109.405 111.958C109.378 111.904 109.35 111.846 109.319 111.792C109.154 111.486 108.969 111.205 108.768 110.954C108.714 110.887 108.657 110.817 108.598 110.754C108.565 110.712 108.531 110.674 108.495 110.64L108.314 110.455L108.146 110.303C107.998 110.176 107.842 110.052 107.672 109.934C107.619 109.896 107.563 109.861 107.506 109.826C107.449 109.792 107.36 109.738 107.285 109.693H107.273L107.121 109.598C107.005 109.537 106.888 109.483 106.764 109.429L106.576 109.353L106.373 109.28L106.171 109.214C105.968 109.15 105.751 109.093 105.524 109.048L105.293 109.004L105.056 108.966L104.811 108.934L104.463 108.902L104.057 108.88C102.27 108.88 100.488 109.177 98.7403 109.766C97.5265 109.343 96.2831 109.163 95.0404 109.233H94.8641L94.6614 109.252H94.5318L94.2704 109.29C94.1832 109.29 94.0941 109.318 94.007 109.337C93.9198 109.356 93.8286 109.372 93.7415 109.395L93.6078 109.429C93.4761 109.464 93.3423 109.503 93.2025 109.547C93.1579 109.56 93.1134 109.576 93.0688 109.595C92.8925 109.655 92.7162 109.728 92.542 109.811C92.4548 109.849 92.3677 109.893 92.2806 109.941C92.236 109.96 92.1934 109.985 92.1509 110.011L92.0212 110.084L91.8935 110.163L91.7416 110.258C91.6646 110.309 91.5896 110.363 91.5146 110.42C91.4721 110.449 91.4295 110.481 91.389 110.516C91.3485 110.551 91.3059 110.579 91.2674 110.614C90.8093 110.985 90.3859 111.453 90.0091 112.005L89.9058 112.161L89.8045 112.323C89.77 112.377 89.7376 112.434 89.7052 112.491C89.5731 112.717 89.45 112.956 89.3364 113.206C89.304 113.272 89.2736 113.339 89.2432 113.409C89.1146 113.706 88.9982 114.016 88.8947 114.336C88.8683 114.413 88.844 114.492 88.8197 114.568C88.6543 115.105 88.5187 115.663 88.4144 116.236C88.3766 116.447 88.3422 116.659 88.3111 116.871C88.3111 116.871 84.0215 119.837 80.4633 121.984C79.5171 122.556 78.6255 123.073 77.8798 123.464C77.663 123.578 77.4604 123.683 77.272 123.781C76.8631 124.013 76.4379 124.167 76.0055 124.239C75.8018 124.244 75.5985 124.274 75.3976 124.328C73.7624 124.744 70.9601 126.551 70.6541 128.364C70.6293 128.509 70.6224 128.66 70.6339 128.809C70.6339 128.809 70.6339 128.831 70.6339 128.844C70.8365 131.067 69.4181 130.749 69.4181 130.749C69.4181 130.749 68.9115 136.625 68.2023 138.213C67.6897 139.356 67.3392 141.906 67.2946 143.831C67.2691 144.431 67.2991 145.033 67.3837 145.619C67.3837 145.635 67.3837 145.651 67.3837 145.664C67.4648 146.089 67.2703 147.252 66.94 148.741C66.5813 150.377 66.0586 152.409 65.556 154.327C64.7982 157.224 64.085 159.854 64.0404 160.432C64.0222 160.689 63.9695 161.149 63.8965 161.743C63.6007 164.163 62.9442 168.772 62.62 170.636C62.3788 172.027 62.0283 173.932 61.7872 175.241C61.7872 175.279 61.773 175.317 61.7669 175.352L70.8507 175.212V175.479H70.8791H70.8669Z" fill="#6C63FF"/>
<path opacity="0.1" d="M74.1819 138.045C74.1819 138.045 85.7317 147.414 89.8855 146.302L74.1819 138.045Z" fill="black"/>
<path opacity="0.1" d="M97.6867 134.233C97.6867 134.233 108.933 139.95 112.681 140.744C116.43 141.538 97.6867 134.233 97.6867 134.233Z" fill="black"/>
<path opacity="0.1" d="M110.16 115.839C104.284 117.534 93.2208 117.169 88.4388 116.912C90.1915 107.067 98.7383 110.414 98.7383 110.414C109.318 107.105 110.128 113.971 110.16 115.839Z" fill="black"/>
<path d="M110.16 115.203C104.284 116.899 93.2208 116.534 88.4388 116.277C90.1915 106.431 98.7383 109.779 98.7383 109.779C109.318 106.47 110.128 113.336 110.16 115.203Z" fill="#6C63FF"/>
<path d="M141.353 158.609C141.353 158.609 148.275 156.941 148.41 161.705C148.546 166.469 144.881 169.797 144.881 169.797L141.353 158.609Z" fill="#FBBEBE"/>
<path opacity="0.1" d="M106.572 104.342C106.274 104.55 105.97 104.735 105.66 104.894C103.476 106.076 101.273 107.267 98.9733 107.699C96.6735 108.131 94.2602 107.749 92.2542 105.952C92.0436 105.765 91.8406 105.559 91.6463 105.333C91.4234 98.3456 90.8865 91.5174 90.8865 91.5174C90.8865 91.5174 108.515 78.4961 106.489 88.8178C105.682 92.9878 105.956 98.8442 106.572 104.342Z" fill="black"/>
<path d="M95.8793 60.9555C95.5901 61.0752 95.287 61.0873 94.9943 60.9908C94.7016 60.8943 94.4273 60.6919 94.1934 60.3997L94.6149 61.3175C94.3665 61.3625 94.1149 61.3218 93.8775 61.1983C93.6402 61.0749 93.423 60.8717 93.2411 60.6029C93.2028 61.4246 93.2246 62.2504 93.3059 63.0643C92.6085 63.117 91.9219 62.7793 91.3688 62.1115C91.358 62.398 91.4035 62.6828 91.4991 62.9276C91.5948 63.1723 91.736 63.3652 91.9037 63.4803C91.2032 63.3492 90.4961 63.622 89.9145 64.2479C89.3328 64.8737 88.9163 65.8099 88.7427 66.8817L89.8005 67.0342C88.9692 67.3124 88.2231 68.0259 87.685 69.0572C87.3608 69.6924 87.1136 70.5055 87.2554 71.2804C87.3973 72.0553 88.0822 72.5508 88.455 71.9981C87.9247 72.9903 87.5392 74.1523 87.3257 75.4026C87.1122 76.6529 87.0757 77.9613 87.219 79.2361C87.3152 79.7792 87.3467 80.3455 87.3122 80.9066C87.2453 81.4306 87.0346 81.8848 86.9292 82.3961C86.7266 83.3235 86.9191 84.3302 87.0994 85.2544L88.0497 90.1517C88.3942 91.9207 88.7367 93.6929 89.1865 95.4047C89.505 96.487 89.7758 97.6022 89.997 98.7426C90.2523 100.28 90.2624 101.963 90.8075 103.306C91.1811 104.152 91.6804 104.842 92.2624 105.317C94.2664 107.114 96.6878 107.495 98.9815 107.063C101.275 106.632 103.476 105.441 105.658 104.259C106.143 104.03 106.608 103.71 107.044 103.306C108.554 101.757 108.89 98.587 109.172 95.7953C109.486 92.6829 109.905 89.5769 110.649 86.6487C111.09 84.9051 111.662 83.1361 111.565 81.2687C111.441 78.7883 110.189 76.7779 109.879 74.3388C109.775 73.5235 109.78 72.6834 109.893 71.8711C109.989 71.3872 110.043 70.885 110.053 70.3784C110.019 69.3558 109.484 68.5682 108.981 67.9107C107.891 66.4837 106.766 65.135 105.605 63.8646C105.547 63.2294 106.098 62.9563 106.347 62.4545C106.7 61.7463 106.335 60.622 105.8 60.2917C105.265 59.9614 104.665 60.1774 104.108 60.3965C104.144 59.9495 104.088 59.496 103.946 59.1035C103.805 58.7111 103.587 58.4006 103.324 58.2183C103.061 58.0359 102.767 57.9915 102.487 58.0915C102.207 58.1916 101.954 58.4308 101.768 58.7736C101.62 58.2418 101.383 57.782 101.083 57.4423C100.783 57.1026 100.43 56.8955 100.061 56.8427C98.7181 56.6775 98.6917 58.2877 97.8326 59.1738C96.9735 60.0599 96.2643 58.8911 95.6037 58.04C95.4823 58.5211 95.4439 59.0438 95.4923 59.5556C95.5406 60.0674 95.6741 60.5502 95.8793 60.9555Z" fill="#3F3D56"/>
<path d="M146.485 168.136C146.485 168.136 146.305 168.81 145.973 169.785C145.47 171.285 144.858 172.688 144.149 173.967L144.094 174.06H143.766L132.066 174.228H131.787L131.752 174.164L129.483 169.944L128.628 168.352L128.593 168.286L128.521 168.152L128.48 168.076L128.427 167.978L126.764 164.884L127.372 160.914L128.407 154.226L128.433 154.064L128.636 152.794L128.78 151.841L129.262 148.735L130.916 138.048L133.854 140.43L136.952 149.005L138.615 153.61H139.527C139.699 153.61 140.095 154.131 140.492 154.731C140.634 154.944 140.775 155.169 140.897 155.366C141.258 155.95 141.543 156.452 141.543 156.452C141.543 156.452 143.021 156.503 143.418 158.326C143.438 158.414 143.455 158.504 143.468 158.596C143.6 159.313 143.772 160.01 143.981 160.679C144.242 161.572 144.571 162.585 144.903 163.598C145.521 165.456 146.149 167.225 146.38 167.866L146.408 167.946L146.485 168.136Z" fill="#6C63FF"/>
<path opacity="0.1" d="M129.08 153.797L129.059 154.251V154.283L129.025 155.014L128.756 160.892L128.429 167.974L128.336 169.969L128.133 174.237V174.291L106.452 174.609L70.873 175.212V175.479H70.8446V175.212V175.123L70.9358 170.563L71.11 161.651L71.26 154.096L71.2742 153.343C71.283 152.889 71.3509 152.442 71.4736 152.03C71.5963 151.618 71.7713 151.25 71.9878 150.948C72.2044 150.646 72.458 150.416 72.7332 150.272C73.0083 150.129 73.2992 150.074 73.5882 150.113C74.5446 150.24 75.7867 150.396 77.2719 150.561L77.8798 150.631C86.4571 151.565 102.309 152.771 118.304 151.266C118.64 151.237 118.979 151.206 119.317 151.168C121.797 150.923 124.275 150.609 126.729 150.215C127.039 150.164 127.353 150.22 127.648 150.38C127.943 150.539 128.212 150.798 128.436 151.138C128.66 151.478 128.834 151.891 128.945 152.348C129.056 152.804 129.102 153.294 129.08 153.781V153.797Z" fill="black"/>
<path d="M70.8669 175.479V175.212L106.452 174.606L128.134 174.288H128.194V174.234L128.397 169.966L128.484 168.06L128.816 160.879L129.078 155.195V155.055C129.09 154.793 129.082 154.53 129.055 154.27C129.057 154.26 129.057 154.249 129.055 154.239C129 153.703 128.861 153.196 128.65 152.765C128.427 152.317 128.135 151.965 127.801 151.742C127.467 151.52 127.102 151.435 126.741 151.495C124.288 151.888 121.81 152.203 119.329 152.447C118.991 152.485 118.653 152.517 118.316 152.546C102.321 154.035 86.4693 152.828 77.892 151.911L77.2842 151.841C75.7989 151.676 74.5568 151.523 73.6004 151.393C73.0743 151.323 72.5503 151.562 72.1297 152.062C71.7091 152.562 71.4217 153.289 71.3229 154.102C71.3024 154.274 71.2902 154.448 71.2864 154.623L71.1486 161.661L70.9602 170.576L70.871 175.136V175.225V175.492L70.8669 175.479Z" fill="#3F3D56"/>
<path opacity="0.1" d="M129.141 156.023L128.891 160.892L128.521 168.149L128.427 169.966L128.225 174.034L128.213 174.237V174.291L128.182 174.761L128.204 174.291H128.146L106.465 174.609L70.873 175.212V175.123L70.9723 170.563L71.1749 161.651L71.3046 155.728C71.311 155.391 71.371 155.062 71.4793 154.771C71.5876 154.48 71.7407 154.236 71.9246 154.061C72.1541 153.84 72.4224 153.74 72.6906 153.775C73.1161 153.829 73.6389 153.892 74.2488 153.962C75.2396 154.077 76.4615 154.21 77.8839 154.35C80.5181 154.61 83.8229 154.89 87.61 155.118C98.1466 155.754 112.371 155.966 125.882 154.112C126.49 154.029 127.118 153.937 127.732 153.845C127.975 153.807 128.22 153.88 128.437 154.054C128.499 154.102 128.557 154.16 128.612 154.226C128.788 154.426 128.928 154.696 129.017 155.007C129.038 155.069 129.055 155.134 129.068 155.201C129.128 155.464 129.153 155.744 129.141 156.023Z" fill="black"/>
<path opacity="0.1" d="M60.4033 160.371V161.384C60.4034 161.753 60.3368 162.114 60.2113 162.425C60.0857 162.737 59.9064 162.986 59.6941 163.144L51.5687 163.388C51.3527 163.233 51.1696 162.984 51.0414 162.67C50.9131 162.357 50.8451 161.992 50.8453 161.619V160.667L60.4033 160.371Z" fill="black"/>
<path d="M60.5046 163.741L49.9173 164.059V161.305L60.5046 160.987V163.741Z" fill="#3F3D56"/>
<path opacity="0.1" d="M60.5046 163.741L49.9173 164.059V161.305L60.5046 160.987V163.741Z" fill="black"/>
<path d="M60.9099 163.741L50.3226 164.059V161.305L60.9099 160.987V163.741Z" fill="#3F3D56"/>
<g opacity="0.1">
<path opacity="0.1" d="M95.9624 59.9138C95.7644 59.5106 95.6329 59.0372 95.5794 58.5354C95.5306 59.0259 95.5598 59.5278 95.6645 59.9963C95.7651 59.9818 95.8647 59.9542 95.9624 59.9138Z" fill="black"/>
<path opacity="0.1" d="M93.3889 62.0226C93.3507 61.6332 93.3257 61.241 93.314 60.8475C93.314 61.2381 93.314 61.6319 93.314 62.0258L93.3889 62.0226Z" fill="black"/>
<path opacity="0.1" d="M109.903 72.6206C109.914 72.3376 109.939 72.0564 109.976 71.779C110.072 71.2959 110.126 70.795 110.138 70.2895C110.134 70.176 110.123 70.0633 110.106 69.9528C110.071 70.245 110.017 70.5372 109.976 70.8262C109.895 71.4154 109.871 72.0201 109.903 72.6206Z" fill="black"/>
<path opacity="0.1" d="M105.688 62.807L105.909 63.0579C106.095 62.8468 106.27 62.6109 106.43 62.3529C106.506 62.1876 106.553 61.9938 106.567 61.791C106.581 61.5881 106.56 61.3832 106.507 61.1968C106.487 61.2693 106.461 61.3376 106.43 61.4001C106.181 61.9019 105.63 62.1782 105.688 62.807Z" fill="black"/>
<path opacity="0.1" d="M89.0385 65.8623C88.9646 66.0939 88.9056 66.3365 88.8622 66.5864C89.1792 66.3091 89.5206 66.1068 89.8754 65.9862L89.0385 65.8623Z" fill="black"/>
<path opacity="0.1" d="M91.8328 62.4068C91.6997 62.2919 91.5724 62.1613 91.4519 62.0162C91.4468 62.1418 91.4529 62.268 91.4701 62.3909C91.5911 62.3819 91.7123 62.3872 91.8328 62.4068Z" fill="black"/>
<path opacity="0.1" d="M111.644 81.1194C111.561 82.6597 111.103 84.1429 110.732 85.6038C109.988 88.532 109.569 91.638 109.255 94.7536C108.973 97.5452 108.647 100.715 107.127 102.261C106.693 102.668 106.228 102.988 105.743 103.214C103.559 104.399 101.356 105.587 99.0564 106.019C96.7566 106.451 94.3433 106.073 92.3373 104.275C91.7557 103.799 91.2564 103.109 90.8825 102.265C90.3414 100.921 90.3313 99.238 90.0719 97.7009C89.8508 96.5595 89.58 95.4432 89.2614 94.3598C88.8136 92.6511 88.4692 90.8663 88.1267 89.11C87.8093 87.4776 87.4925 85.8441 87.1764 84.2096C87.0723 83.7179 86.995 83.2132 86.9454 82.701C86.8664 83.514 87.0204 84.3652 87.1764 85.1623C87.4925 86.799 87.8093 88.4325 88.1267 90.0628C88.4692 91.8318 88.8136 93.6039 89.2614 95.3126C89.58 96.3959 89.8508 97.5122 90.0719 98.6536C90.3273 100.191 90.3374 101.874 90.8825 103.217C91.2564 104.062 91.7557 104.752 92.3373 105.228C94.3433 107.025 96.7627 107.403 99.0564 106.971C101.35 106.539 103.551 105.352 105.743 104.167C106.228 103.941 106.693 103.621 107.127 103.214C108.637 101.668 108.973 98.498 109.255 95.7064C109.569 92.5908 109.988 89.4848 110.732 86.5566C111.174 84.8162 111.745 83.0472 111.648 81.1766C111.648 81.1575 111.644 81.1384 111.644 81.1194Z" fill="black"/>
<path opacity="0.1" d="M87.3912 79.8903C87.3912 79.8903 87.3912 79.8681 87.3912 79.8554C87.4277 79.2953 87.3961 78.7295 87.298 78.188C87.2576 77.8395 87.2312 77.4873 87.2189 77.1336C87.1956 77.8052 87.2221 78.4788 87.298 79.1408C87.3304 79.3885 87.3669 79.6394 87.3912 79.8903Z" fill="black"/>
<path opacity="0.1" d="M88.0092 72.122C88.165 71.7117 88.3419 71.3219 88.538 70.9565C88.1672 71.5122 87.4823 71.0168 87.3385 70.2451C87.2854 70.5572 87.2854 70.8857 87.3385 71.1978C87.3884 71.4309 87.4767 71.6391 87.5945 71.8014C87.7123 71.9637 87.8553 72.0743 88.0092 72.122Z" fill="black"/>
</g>
<path opacity="0.1" d="M138.617 153.607C138.617 153.607 139.26 157.259 138.617 160.435C137.975 163.611 138.617 153.607 138.617 153.607Z" fill="black"/>
<path opacity="0.1" d="M141.353 157.332C141.353 157.332 141.622 161.969 141.015 162.791C140.407 163.614 141.353 157.332 141.353 157.332Z" fill="black"/>
<path d="M40.3209 108.89L60.9098 108.572" stroke="#6C63FF" stroke-width="2" stroke-miterlimit="10"/>
<path d="M40.3209 112.85L60.9098 112.536" stroke="#6C63FF" stroke-width="2" stroke-miterlimit="10"/>
<path d="M40.3209 116.814L60.9098 116.496" stroke="#6C63FF" stroke-width="2" stroke-miterlimit="10"/>
</svg>

