<svg width="267" height="176" viewBox="0 0 267 176" fill="none" xmlns="http://www.w3.org/2000/svg">
<g clip-path="url(#clip0)">
<path d="M195.203 176C187.821 174.847 180.723 173.867 173.909 173.059L176.533 167.826C175.622 167.523 171.675 170.551 171.675 170.551L175.015 155.413C170.461 156.019 168.336 171.459 168.336 171.459L163.175 166.312L165.716 172.139C144.865 169.954 126.873 169.273 111.749 169.429L113.995 164.95C113.084 164.647 109.138 167.675 109.138 167.675L112.477 152.537C107.923 153.143 105.798 168.583 105.798 168.583L100.637 163.436L103.328 169.608C92.9681 169.908 82.6304 170.738 72.3559 172.095C74.5967 165.133 82.4224 158.441 82.4224 158.441C76.4052 160.308 73.2748 163.349 71.6545 166.168C71.3268 151.866 73.5332 137.617 78.1722 124.08C78.1722 124.08 66.029 151.326 67.8505 169.491L68.0816 172.718C57.5171 174.361 52.216 176 52.216 176H195.203Z" fill="#3F3D56"/>
<path d="M223.033 138.501C222.312 138.501 221.608 138.288 221.009 137.889C220.41 137.489 219.943 136.922 219.667 136.258C219.392 135.594 219.319 134.864 219.46 134.159C219.601 133.454 219.948 132.807 220.457 132.299C220.966 131.791 221.616 131.445 222.322 131.305C223.029 131.165 223.761 131.237 224.427 131.512C225.093 131.787 225.662 132.252 226.062 132.85C226.462 133.447 226.676 134.149 226.676 134.868C226.675 135.831 226.291 136.755 225.608 137.436C224.925 138.117 223.999 138.5 223.033 138.501ZM223.033 131.841C222.433 131.841 221.846 132.018 221.346 132.351C220.847 132.683 220.458 133.156 220.228 133.709C219.998 134.263 219.938 134.871 220.056 135.459C220.173 136.046 220.462 136.585 220.886 137.009C221.311 137.432 221.852 137.72 222.441 137.837C223.03 137.954 223.64 137.894 224.195 137.665C224.749 137.436 225.224 137.048 225.557 136.55C225.891 136.052 226.069 135.467 226.069 134.868C226.068 134.065 225.748 133.296 225.179 132.728C224.61 132.161 223.838 131.841 223.033 131.841Z" fill="#3F3D56"/>
<path d="M252.125 175.523H246.131V169.547H252.125V175.523ZM246.592 175.064H251.664V170.007H246.592V175.064Z" fill="#3F3D56"/>
<path d="M49.2239 175.85L45.1361 171.48L49.5187 167.403L53.6064 171.774L49.2239 175.85ZM45.7877 171.502L49.2465 175.201L52.9549 171.751L49.496 168.053L45.7877 171.502Z" fill="#3F3D56"/>
<path d="M267 175.186H6.57935V175.791H267V175.186Z" fill="#3F3D56"/>
<path d="M168.025 40.495V60.3792C168.024 60.5629 167.951 60.7389 167.821 60.8688C167.69 60.9987 167.514 61.0719 167.33 61.0724H166.835V164.656C166.835 167.522 165.693 170.271 163.66 172.298C161.628 174.325 158.871 175.464 155.997 175.464H91.0942C89.6712 175.464 88.2621 175.184 86.9474 174.641C85.6327 174.098 84.4382 173.302 83.4321 172.298C82.4259 171.294 81.6279 170.103 81.0835 168.792C80.5392 167.481 80.2591 166.075 80.2594 164.656V64.7054H79.9012C79.7712 64.7056 79.6464 64.6544 79.5543 64.563C79.4621 64.4716 79.41 64.3476 79.4094 64.2179V52.9014C79.4093 52.837 79.4221 52.7732 79.4468 52.7137C79.4715 52.6542 79.5077 52.6001 79.5534 52.5546C79.599 52.509 79.6533 52.4729 79.7129 52.4483C79.7726 52.4236 79.8366 52.4109 79.9012 52.411H80.2594V48.1483H79.8981C79.7617 48.1478 79.631 48.0933 79.5348 47.9968C79.4386 47.9003 79.3848 47.7697 79.3851 47.6337V36.4715C79.3854 36.3359 79.4396 36.206 79.5357 36.1101C79.6319 36.0143 79.7621 35.9602 79.8981 35.9599H80.2594V30.1412H79.892C79.8322 30.1412 79.773 30.1295 79.7177 30.1068C79.6624 30.084 79.6122 30.0505 79.5699 30.0083C79.5276 29.9661 79.494 29.9161 79.4712 29.8609C79.4483 29.8058 79.4366 29.7467 79.4367 29.687V23.5958C79.4364 23.475 79.4842 23.3591 79.5696 23.2734C79.6549 23.1877 79.7709 23.1392 79.892 23.1387H80.2594V10.8049C80.2595 7.93933 81.401 5.19112 83.4329 3.16483C85.4648 1.13854 88.2207 0.000134891 91.0942 3.05177e-05H155.997C158.871 1.75628e-05 161.627 1.13829 163.659 3.16452C165.692 5.19074 166.834 7.93901 166.835 10.8049V39.8017H167.33C167.514 39.8022 167.69 39.8754 167.821 40.0053C167.951 40.1352 168.024 40.3113 168.025 40.495Z" fill="#3F3D56"/>
<path d="M126.672 5.54224H116.126C115.7 5.54224 115.354 5.88677 115.354 6.31178V7.22081C115.354 7.64581 115.7 7.99035 116.126 7.99035H126.672C127.099 7.99035 127.444 7.64581 127.444 7.22081V6.31178C127.444 5.88677 127.099 5.54224 126.672 5.54224Z" fill="#E6E8EC"/>
<path d="M130.665 8.15487C131.434 8.15487 132.057 7.53318 132.057 6.76629C132.057 5.9994 131.434 5.37772 130.665 5.37772C129.896 5.37772 129.272 5.9994 129.272 6.76629C129.272 7.53318 129.896 8.15487 130.665 8.15487Z" fill="#E6E8EC"/>
<path d="M161.645 12.9424V165.552C161.646 166.545 161.43 167.525 161.013 168.426C160.596 169.327 159.987 170.126 159.229 170.769C157.985 171.826 156.403 172.407 154.769 172.406H92.641C91.5355 172.408 90.4461 172.143 89.4655 171.634C89.2351 171.517 89.0121 171.385 88.7976 171.241C87.8639 170.613 87.099 169.765 86.5702 168.774C86.0415 167.782 85.7649 166.676 85.7648 165.552V12.9424C85.7648 12.0419 85.9426 11.1502 86.2882 10.3183C86.6337 9.48631 87.1402 8.73037 87.7787 8.09361C88.4172 7.45686 89.1753 6.95177 90.0095 6.60718C90.8438 6.26259 91.738 6.08526 92.641 6.0853H101.94V7.27508C101.94 8.77253 102.536 10.2086 103.598 11.2675C104.66 12.3264 106.1 12.9212 107.601 12.9212H139.198C140.7 12.9212 142.14 12.3264 143.202 11.2675C144.264 10.2086 144.86 8.77253 144.86 7.27508V6.0853H154.769C155.672 6.085 156.566 6.26217 157.401 6.60667C158.235 6.95117 158.993 7.45625 159.632 8.09305C160.27 8.72985 160.777 9.48589 161.122 10.318C161.468 11.15 161.645 12.0419 161.645 12.9424Z" fill="#DAC493"/>
<path opacity="0.3" d="M161.645 143.706V165.552C161.646 166.545 161.43 167.525 161.013 168.426C160.596 169.327 159.987 170.126 159.229 170.769C157.985 171.826 156.403 172.407 154.769 172.406H92.641C91.5355 172.408 90.4461 172.143 89.4655 171.634C89.2351 171.517 89.0121 171.385 88.7976 171.241C87.8639 170.613 87.099 169.765 86.5702 168.774C86.0415 167.782 85.7649 166.676 85.7648 165.552V143.715C96.1826 134.377 109.695 129.21 123.703 129.208C137.711 129.206 151.225 134.37 161.645 143.706Z" fill="white"/>
<path opacity="0.3" d="M157.95 171.628C156.969 172.142 155.877 172.409 154.769 172.406H92.641C91.5356 172.408 90.4461 172.143 89.4655 171.634C92.2781 164.889 97.0311 159.125 103.125 155.07C109.219 151.015 116.38 148.851 123.706 148.85C131.032 148.849 138.194 151.012 144.288 155.066C150.383 159.12 155.137 164.883 157.95 171.628Z" fill="white"/>
<path opacity="0.3" d="M144.429 171.995C143.835 172.306 143.174 172.467 142.504 172.465H104.909C104.24 172.466 103.58 172.306 102.987 171.998C104.689 167.916 107.565 164.428 111.253 161.975C114.94 159.521 119.274 158.211 123.707 158.211C128.14 158.21 132.474 159.519 136.162 161.972C139.849 164.426 142.726 167.913 144.429 171.995Z" fill="white"/>
<path d="M139.51 65.1656C133.278 65.1656 126.438 63.9822 121.099 59.9887C113.665 54.4288 104.506 54.7254 98.1317 55.9537C93.8977 56.7764 89.7881 58.1415 85.9051 60.015L85.6244 59.4781C89.5548 57.5802 93.7147 56.1968 98.0007 55.3623C104.5 54.1078 113.847 53.808 121.463 59.5044C135.731 70.176 161.28 60.5914 161.536 60.4937L161.754 61.0589C156.963 62.7619 152.008 63.9649 146.968 64.6485C144.496 64.9848 142.004 65.1576 139.51 65.1656Z" fill="white"/>
<path opacity="0.3" d="M85.7618 59.7465C85.7618 59.7465 106.709 54.687 121.281 61.6144C135.853 68.5418 161.657 61.563 161.657 61.563" fill="white"/>
<path opacity="0.3" d="M105.537 67.6061C103.007 67.5947 100.483 67.3434 98.0007 66.8556C93.7147 66.021 89.5548 64.6376 85.6244 62.7397L85.9051 62.2028C89.7881 64.0763 93.8977 65.4414 98.1317 66.2641C104.506 67.4922 113.665 67.789 121.099 62.2291C128.708 56.5376 139.367 56.5535 146.968 57.5692C152.008 58.2529 156.963 59.4558 161.754 61.1588L161.536 61.7241C161.28 61.6261 135.732 52.0414 121.463 62.7134C116.468 66.449 110.729 67.6061 105.537 67.6061Z" fill="white"/>
<path opacity="0.3" d="M105.641 65.1682C95.1263 65.1682 85.7892 61.4065 85.6492 61.349L85.8804 60.789C86.0882 60.8745 106.854 69.2354 121.126 60.8086C135.645 52.2349 161.474 59.8879 161.733 59.9663L161.557 60.5457C161.301 60.4683 135.724 52.892 121.435 61.3295C116.559 64.2089 110.95 65.1682 105.641 65.1682Z" fill="white"/>
<path opacity="0.3" d="M85.7648 60.6033C85.7648 60.6033 106.709 67.5308 121.281 60.6033C135.853 53.6759 161.645 59.9488 161.645 59.9488" fill="white"/>
<path d="M167.052 79.1371V87.9629C167.052 87.9629 167.76 97.8478 171.654 102.79C171.654 102.79 178.026 111.793 178.911 109.851L177.821 103.458L174.132 99.966L172.185 89.022L171.654 79.1371H167.052Z" fill="#FFB8B8"/>
<path d="M206.17 158.922V165.453L200.86 167.395V159.805L206.17 158.922Z" fill="#FFB8B8"/>
<path d="M195.372 158.216L198.912 166.159L193.956 168.278L192.894 160.511L195.372 158.216Z" fill="#FFB8B8"/>
<path d="M204.223 97.3183C204.223 97.3183 211.303 161.041 208.648 161.217C205.993 161.394 200.86 164.747 200.86 162.453C200.86 160.158 196.788 130.327 196.788 130.327L192.894 114.97V136.152L196.965 160.158C196.965 160.158 193.071 165.277 190.239 162.276L184.221 138.8C184.221 138.8 176.256 103.143 176.61 100.319C176.61 100.319 194.841 84.7856 204.223 97.3183Z" fill="#2F2E41"/>
<path d="M202.807 165.807C202.807 165.807 204.223 162.806 207.409 164.747L210.064 167.925C210.064 167.925 216.909 173.578 212.052 174.789C207.045 176.037 204.046 174.709 204.046 174.709C204.046 174.709 203.161 174.18 202.453 174.18C201.745 174.18 200.151 172.944 200.151 172.591C200.151 172.238 200.683 165.983 200.683 165.983C200.883 165.886 201.108 165.85 201.329 165.882C201.55 165.913 201.756 166.01 201.922 166.16C202.453 166.689 202.807 165.807 202.807 165.807Z" fill="#2F2E41"/>
<path d="M192.363 164.747C192.363 164.747 195.726 162.1 197.319 165.101C197.319 165.101 198.322 165.454 198.44 165.101C198.558 164.747 199.443 164.571 199.443 166.513C199.443 168.454 200.405 173.297 199.52 173.474C198.635 173.65 197.75 174.18 197.927 174.886C198.104 175.592 196.965 175.691 192.894 175.515C188.823 175.338 188.646 173.75 188.646 173.75C188.646 173.75 188.646 171.455 189.708 170.219C190.77 168.984 192.363 164.747 192.363 164.747Z" fill="#2F2E41"/>
<path d="M185.814 49.1293C185.814 49.1293 184.929 55.6604 190.593 57.9551C196.257 60.2498 178.026 67.84 176.256 63.4271C174.486 59.0142 176.61 57.6021 176.61 57.6021C176.61 57.6021 178.38 55.8369 176.787 51.071L185.814 49.1293Z" fill="#FFB8B8"/>
<path d="M180.15 53.7188C184.451 53.7188 187.938 50.2415 187.938 45.9521C187.938 41.6626 184.451 38.1854 180.15 38.1854C175.849 38.1854 172.362 41.6626 172.362 45.9521C172.362 50.2415 175.849 53.7188 180.15 53.7188Z" fill="#FFB8B8"/>
<path d="M189.177 60.0734C189.177 60.0734 183.867 62.8976 178.734 60.7794C173.601 58.6612 173.778 67.8401 173.778 67.8401L176.433 74.7242L194.841 72.959L193.602 62.3681L189.177 60.0734Z" fill="#F2F2F2"/>
<path d="M186.539 54.0335C187.482 54.233 188.368 54.6415 189.131 55.2287C189.894 55.8158 190.515 56.5667 190.947 57.4256L199.443 60.0733L201.568 63.0741L199.089 84.7856C199.089 84.7856 203.692 89.1985 203.692 91.6697C203.692 94.141 209.356 102.614 206.524 101.555C203.692 100.496 198.558 96.7887 198.558 96.7887C198.558 96.7887 185.637 97.3183 181.566 100.849C177.495 104.379 175.902 103.32 175.902 103.32C175.902 103.32 171.654 84.9621 171.477 82.1379C171.3 79.3136 166.344 62.368 166.344 62.368L175.194 57.4256L177.448 54.875L183.69 64.8393L189.354 57.9551C189.354 57.9551 186.556 55.7604 186.539 54.0335Z" fill="#3F3D56"/>
<path d="M204.223 76.6658L205.285 82.3144C205.285 82.3144 210.064 99.966 209.356 105.968C209.356 105.968 209.887 119.383 206.878 117.794C203.869 116.205 205.462 106.497 205.462 106.497L201.214 89.022L198.912 78.784L204.223 76.6658Z" fill="#FFB8B8"/>
<path d="M199.797 62.015L201.568 63.0741C201.568 63.0741 208.294 77.0189 206.701 78.078C205.108 79.1371 198.204 81.4318 198.204 81.4318L199.797 62.015Z" fill="#3F3D56"/>
<path d="M170.592 62.3681L166.432 62.2797L165.459 63.9566L166.698 81.0789L173.07 82.4909L170.592 62.3681Z" fill="#3F3D56"/>
<path d="M186.492 39.3834L187.896 38.8743C187.896 38.8743 184.961 35.9473 180.877 36.2018L182.025 35.0564C182.025 35.0564 179.218 34.0383 176.666 36.7108C175.324 38.1157 173.771 39.7671 172.804 41.6274H171.3L171.928 42.8788L169.732 44.1302L171.986 43.9054C171.772 44.9859 171.846 46.1032 172.199 47.1465L172.709 48.5464C172.709 48.5464 174.751 44.4739 174.751 43.9649V45.2375C174.751 45.2375 176.155 44.0921 176.155 43.3286L176.921 44.2194L177.304 42.8195L182.025 44.2194L181.26 43.074L184.195 43.4558L183.046 42.0559C183.046 42.0559 186.364 43.7104 186.492 45.1103C186.62 46.5102 187.496 48.335 187.496 48.335L188.558 47.0994C188.558 47.0994 190.193 41.2924 186.492 39.3834Z" fill="#2F2E41"/>
<path d="M186.699 47.6289C187.041 47.6289 187.319 46.9177 187.319 46.0403C187.319 45.1629 187.041 44.4517 186.699 44.4517C186.357 44.4517 186.08 45.1629 186.08 46.0403C186.08 46.9177 186.357 47.6289 186.699 47.6289Z" fill="#FFB8B8"/>
<path d="M12.6393 165.606C16.4124 172.583 24.4201 175.579 24.4201 175.579C24.4201 175.579 26.3106 167.261 22.5375 160.283C18.7645 153.305 10.7567 150.31 10.7567 150.31C10.7567 150.31 8.8663 158.628 12.6393 165.606Z" fill="#3F3D56"/>
<path d="M15.2327 163.31C22.0446 167.397 24.668 175.515 24.668 175.515C24.668 175.515 16.2473 177.006 9.43536 172.919C2.62347 168.832 0 160.714 0 160.714C0 160.714 8.42078 159.223 15.2327 163.31Z" fill="#DAC493"/>
<path opacity="0.3" d="M85.7648 59.7465C85.7648 59.7465 106.709 48.8478 121.281 59.7465C135.853 70.6453 161.645 60.7763 161.645 60.7763" fill="white"/>
<path d="M123.785 170.649C125.63 170.649 127.125 169.158 127.125 167.319C127.125 165.48 125.63 163.989 123.785 163.989C121.941 163.989 120.446 165.48 120.446 167.319C120.446 169.158 121.941 170.649 123.785 170.649Z" fill="white"/>
</g>
<defs>
<clipPath id="clip0">
<rect width="267" height="176" fill="white"/>
</clipPath>
</defs>
</svg>
