<svg width="197" height="188" viewBox="0 0 197 188" fill="none" xmlns="http://www.w3.org/2000/svg">
<g clip-path="url(#clip0)">
<path d="M35.0112 128.288C35.1634 128.603 35.3659 128.878 35.6072 129.099C35.8485 129.32 36.1238 129.481 36.4174 129.575C36.7109 129.668 37.017 129.691 37.3181 129.643C37.6192 129.595 37.9094 129.476 38.1721 129.294C38.4348 129.111 38.6649 128.869 38.8491 128.58C39.0333 128.291 39.1681 127.962 39.2458 127.61C39.3234 127.259 39.3424 126.893 39.3017 126.533C39.2609 126.173 39.1612 125.826 39.0083 125.512C38.9437 125.383 38.8709 125.259 38.7906 125.143L40.7348 108.571L40.793 108.074L41.1879 104.693L41.2461 104.205L41.0309 104.218L37.2643 104.423L36.2542 104.478L36.1276 107.563L35.4112 124.907C35.0369 125.335 34.794 125.901 34.7214 126.515C34.6489 127.128 34.751 127.753 35.0112 128.288Z" fill="#FFB8B8"/>
<path d="M40.7818 108.225L35.9989 107.7C35.7508 107.672 35.522 107.528 35.3625 107.299C35.203 107.07 35.1256 106.775 35.1472 106.478L36.0344 94.5831C36.0774 94.0054 36.2169 93.4438 36.4445 92.9317C36.6722 92.4195 36.9835 91.9672 37.3599 91.6015C37.7363 91.2357 38.1703 90.964 38.6361 90.8024C39.1019 90.6408 39.59 90.5925 40.0717 90.6605C40.5534 90.7285 41.0187 90.9114 41.4402 91.1983C41.8618 91.4851 42.2309 91.8702 42.5258 92.3307C42.8206 92.7912 43.0353 93.3178 43.157 93.8793C43.2787 94.4408 43.305 95.0257 43.2343 95.5996L41.8002 107.267C41.7672 107.534 41.6551 107.779 41.4842 107.955C41.3133 108.132 41.095 108.23 40.869 108.23C40.8402 108.23 40.811 108.228 40.7818 108.225Z" fill="#6C63FF"/>
<path d="M37.1571 98.6147C36.6733 96.976 36.6509 95.193 37.0932 93.5376C37.5355 91.8822 38.4183 90.4451 39.6071 89.4455C41.4107 87.9697 43.8787 87.4399 46.5367 91.2241C51.8526 98.7925 53.2448 107.118 53.2448 107.118L42.3599 109.237C42.3599 109.237 38.6578 103.826 37.1571 98.6147Z" fill="#6C63FF"/>
<g opacity="0.2">
<path opacity="0.2" d="M44.0077 89.4077C43.2037 92.057 42.3827 94.8127 42.3295 97.7703C42.2765 100.031 42.7125 102.269 43.5951 104.269C44.4481 106.117 45.6938 107.469 47.0651 108.034C47.3226 108.165 47.6063 108.203 47.8816 108.144C48.0345 108.093 48.1735 107.995 48.2847 107.859C48.396 107.723 48.4755 107.555 48.5155 107.371C48.6397 106.849 48.4905 106.27 48.3439 105.764C46.7166 100.152 45.9278 95.2759 44.3006 89.6633L44.0077 89.4077Z" fill="black"/>
</g>
<path d="M54.7614 183.868L57.8648 183.867L59.3411 169.551L54.7609 169.552L54.7614 183.868Z" fill="#FFB8B8"/>
<path d="M63.8501 187.313L54.0965 187.314L54.0964 182.807L60.0815 182.807C60.5764 182.807 61.0664 182.923 61.5236 183.15C61.9808 183.376 62.3963 183.708 62.7462 184.127C63.0962 184.545 63.3738 185.042 63.5632 185.589C63.7526 186.136 63.8501 186.722 63.8501 187.313Z" fill="#2F2E41"/>
<path d="M29.2467 180.63L32.1935 181.795L37.3524 168.757L33.0033 167.038L29.2467 180.63Z" fill="#FFB8B8"/>
<path d="M36.9717 187.314L27.7109 183.653L28.8936 179.374L34.5764 181.62C35.5253 181.996 36.3108 182.806 36.76 183.874C37.2092 184.942 37.2854 186.179 36.9717 187.314L36.9717 187.314Z" fill="#2F2E41"/>
<path d="M43.9893 85.692C47.4231 85.692 50.2066 82.3629 50.2066 78.2564C50.2066 74.1499 47.4231 70.8209 43.9893 70.8209C40.5556 70.8209 37.772 74.1499 37.772 78.2564C37.772 82.3629 40.5556 85.692 43.9893 85.692Z" fill="#FFB8B8"/>
<path d="M49.433 179.882L46.5509 157.133C46.5202 156.89 46.4199 156.668 46.2671 156.504C46.1144 156.339 45.9188 156.244 45.7136 156.233C45.5085 156.222 45.3066 156.297 45.1425 156.445C44.9783 156.592 44.8622 156.804 44.8139 157.042L40.425 178.722C40.3558 179.054 40.1854 179.343 39.9471 179.533C39.7089 179.723 39.4199 179.799 39.1371 179.747L27.0308 177.42C26.8703 177.389 26.7171 177.317 26.5817 177.21C26.4462 177.102 26.3315 176.961 26.2454 176.796C26.1592 176.632 26.1036 176.447 26.0822 176.254C26.0608 176.061 26.0742 175.865 26.1214 175.679L41.9072 113.437C41.9521 113.26 41.9574 113.072 41.9227 112.892L41.3971 110.168C41.3393 109.873 41.366 109.563 41.4727 109.288C41.5795 109.013 41.7602 108.788 41.986 108.65C44.1356 107.339 49.5789 104.612 53.6889 107.599C53.8222 107.696 53.9377 107.825 54.0282 107.977C54.1187 108.129 54.1823 108.302 54.2152 108.485L66.5471 177.801C66.5806 177.99 66.5803 178.185 66.5462 178.373C66.5122 178.561 66.4451 178.739 66.3494 178.894C66.2537 179.049 66.1316 179.178 65.9911 179.273C65.8506 179.367 65.695 179.425 65.5345 179.442L50.6609 181.035C50.6266 181.038 50.5926 181.04 50.5588 181.04C50.2865 181.04 50.0233 180.922 49.8169 180.71C49.6104 180.498 49.4742 180.204 49.433 179.882Z" fill="#2F2E41"/>
<path d="M59.2743 123.25C59.4221 122.889 59.5021 122.494 59.5084 122.092C59.5148 121.69 59.4474 121.292 59.3111 120.925C59.1748 120.558 58.9728 120.231 58.7194 119.967C58.4659 119.703 58.1672 119.509 57.8443 119.398L50.0747 100.409L46.0667 103.978L54.9351 121.465C54.8155 122.126 54.9029 122.817 55.1806 123.406C55.4583 123.996 55.9071 124.443 56.442 124.663C56.9768 124.882 57.5606 124.86 58.0826 124.6C58.6046 124.339 59.0286 123.859 59.2743 123.25H59.2743Z" fill="#FFB8B8"/>
<path d="M45.5795 105.164L40.7447 94.7165C40.4522 94.0885 40.2953 93.3832 40.2881 92.6645C40.2809 91.9457 40.4237 91.2361 40.7036 90.6C40.9324 90.0644 41.2561 89.5948 41.6521 89.2241C42.1628 88.7375 42.7737 88.4247 43.4205 88.3186C44.0673 88.2125 44.726 88.3171 45.3273 88.6212C46.1637 89.056 46.8379 89.8421 47.2226 90.8309L51.4607 101.363C51.5653 101.623 51.5826 101.921 51.509 102.196C51.4355 102.47 51.2767 102.701 51.0654 102.84L46.858 105.606C46.6393 105.749 46.3821 105.783 46.1425 105.7C45.9029 105.617 45.7005 105.424 45.5795 105.164Z" fill="#6C63FF"/>
<path d="M40.9023 71.7665C41.4187 71.551 41.8997 71.2294 42.3237 70.8162C42.5338 70.6064 42.6952 70.3355 42.7925 70.0296C42.8898 69.7236 42.9196 69.3929 42.8791 69.0691C42.7131 68.1811 41.8442 67.6962 41.0879 67.7961C40.3317 67.8961 39.669 68.423 39.0398 68.9345C38.4855 69.3852 37.914 69.8572 37.5685 70.544C37.2231 71.2309 37.1703 72.1977 37.6297 72.7813C38.0805 73.354 38.8708 73.3628 39.461 73.0157C40.0512 72.6687 40.488 72.0442 40.9065 71.4374L40.9023 71.7665Z" fill="#2F2E41"/>
<path d="M39.2027 69.1782C39.5267 67.1189 37.8285 65.1606 36.077 65.1029C34.3255 65.0451 32.7276 66.4428 31.7469 68.1793C29.6749 71.8482 29.9067 76.6822 30.5251 81.0474C31.1435 85.4126 32.0653 89.9173 31.1175 94.1971C30.5791 96.5041 29.5296 98.5943 28.08 100.247C26.6304 101.9 24.8345 103.053 22.882 103.586C24.607 105.094 27.0704 104.596 28.9522 103.385C33.1314 100.696 35.6142 94.673 34.8522 89.0713C34.4764 86.3084 33.4095 83.7588 32.6942 81.0934C31.979 78.4281 31.6391 75.4126 32.6852 72.9085C33.7313 70.4045 36.5906 68.8783 38.536 70.4348L39.2027 69.1782Z" fill="#2F2E41"/>
<path d="M43.8426 81.2371C43.4991 80.0325 43.209 78.4911 44.3425 77.7959C44.5873 77.654 44.8534 77.572 45.1251 77.5548C45.3968 77.5376 45.6686 77.5856 45.9245 77.6958C46.9904 78.1263 48.1697 78.4883 49.3108 78.2772C49.7362 78.2129 50.1465 78.047 50.5172 77.7894C50.888 77.5317 51.2116 77.1876 51.469 76.7775C52.2854 75.3657 51.9294 73.3138 50.958 72.0501C50.3599 71.2988 49.5896 70.7755 48.7438 70.5457C47.898 70.316 47.0143 70.39 46.2035 70.7586C44.8604 69.6081 43.0049 69.5078 41.4733 70.2482C39.9417 70.9886 38.7216 72.4818 37.9011 74.1966C37.1647 75.6651 36.7879 77.3514 36.8135 79.0634C36.8653 80.263 37.1579 81.4299 37.6668 82.4655C38.1756 83.501 38.8855 84.3747 39.7366 85.0125C40.0663 85.2715 40.4471 85.4223 40.8408 85.4498C41.2346 85.4773 41.6275 85.3806 41.9802 85.1693C41.9802 85.1693 42.9718 84.5029 43.4183 83.5136C43.7612 82.7537 44.0261 81.8808 43.8426 81.2371Z" fill="#2F2E41"/>
<path d="M96.6983 188H0.253137C0.186001 188 0.121614 187.968 0.0741419 187.911C0.0266695 187.855 0 187.778 0 187.697C0 187.617 0.0266695 187.54 0.0741419 187.483C0.121614 187.426 0.186001 187.395 0.253137 187.395H96.6983C96.7655 187.395 96.8299 187.426 96.8773 187.483C96.9248 187.54 96.9515 187.617 96.9515 187.697C96.9515 187.778 96.9248 187.855 96.8773 187.911C96.8299 187.968 96.7655 188 96.6983 188Z" fill="#3F3D56"/>
<path d="M154.46 116.359H123.794C122.96 116.358 122.159 115.961 121.569 115.255C120.979 114.549 120.647 113.592 120.646 112.594V53.6061C120.647 52.6078 120.979 51.6506 121.569 50.9447C122.159 50.2387 122.96 49.8416 123.794 49.8405H154.46V116.359ZM123.794 50.446C123.094 50.4469 122.422 50.7802 121.927 51.3726C121.431 51.965 121.153 52.7683 121.152 53.6061V112.594C121.153 113.431 121.431 114.235 121.927 114.827C122.422 115.42 123.094 115.753 123.794 115.754H153.954V50.446H123.794Z" fill="#3F3D56"/>
<path d="M153.667 49.8405H184.333C185.168 49.8416 185.968 50.2387 186.558 50.9447C187.149 51.6506 187.481 52.6078 187.482 53.6061V112.594C187.481 113.592 187.149 114.549 186.558 115.255C185.968 115.961 185.168 116.358 184.333 116.359H153.667V49.8405Z" fill="#3F3D56"/>
<path d="M131.616 34.5646H131.27V53.8131H131.616V34.5646Z" fill="#2F2E41"/>
<path d="M131.546 34.9785C130.827 34.9785 130.125 34.7236 129.527 34.246C128.929 33.7684 128.464 33.0896 128.189 32.2954C127.914 31.5012 127.842 30.6273 127.982 29.7841C128.122 28.941 128.468 28.1666 128.976 27.5587C129.485 26.9508 130.132 26.5369 130.837 26.3692C131.542 26.2015 132.273 26.2875 132.937 26.6165C133.601 26.9455 134.169 27.5026 134.568 28.2173C134.967 28.9321 135.181 29.7725 135.181 30.6321C135.181 31.7848 134.798 32.8904 134.116 33.7055C133.435 34.5206 132.51 34.9785 131.546 34.9785ZM131.546 26.6996C130.896 26.6996 130.26 26.9302 129.719 27.3623C129.179 27.7945 128.757 28.4086 128.508 29.1272C128.259 29.8458 128.194 30.6365 128.321 31.3993C128.448 32.1621 128.761 32.8628 129.221 33.4128C129.681 33.9628 130.267 34.3373 130.905 34.489C131.543 34.6408 132.204 34.5629 132.805 34.2653C133.405 33.9676 133.919 33.4636 134.28 32.8169C134.642 32.1702 134.834 31.4099 134.834 30.6321C134.834 29.5891 134.488 28.5889 133.871 27.8514C133.255 27.1139 132.418 26.6996 131.546 26.6996Z" fill="#2F2E41"/>
<path d="M167.029 8.69287H166.683V53.1922H167.029V8.69287Z" fill="#2F2E41"/>
<path d="M166.96 8.69289C166.241 8.69289 165.538 8.43798 164.941 7.96038C164.343 7.48279 163.877 6.80397 163.602 6.00976C163.327 5.21555 163.255 4.34163 163.395 3.4985C163.535 2.65537 163.882 1.88091 164.39 1.27305C164.898 0.665186 165.546 0.251226 166.251 0.0835179C166.956 -0.0841907 167.686 0.0018827 168.35 0.330855C169.015 0.659827 169.582 1.21692 169.981 1.93169C170.381 2.64646 170.594 3.4868 170.594 4.34645C170.594 5.4992 170.211 6.60473 169.53 7.41985C168.848 8.23496 167.924 8.69289 166.96 8.69289ZM166.96 0.413953C166.309 0.413953 165.674 0.644587 165.133 1.0767C164.592 1.5088 164.171 2.12298 163.922 2.84155C163.673 3.56012 163.608 4.35081 163.735 5.11364C163.862 5.87647 164.175 6.57718 164.635 7.12715C165.094 7.67712 165.68 8.05165 166.318 8.20339C166.956 8.35512 167.617 8.27725 168.218 7.9796C168.819 7.68196 169.332 7.17792 169.694 6.53123C170.055 5.88453 170.248 5.12423 170.248 4.34645C170.248 3.30349 169.901 2.30324 169.285 1.56576C168.668 0.82827 167.832 0.413954 166.96 0.413953Z" fill="#2F2E41"/>
<path d="M154.08 97.1968C151.023 97.1968 148.091 95.7443 145.929 93.1589C143.767 90.5734 142.553 87.0668 142.553 83.4104C142.553 79.754 143.767 76.2474 145.929 73.662C148.091 71.0765 151.023 69.624 154.08 69.624V97.1968Z" fill="#6C63FF"/>
<path d="M154.08 69.624C157.138 69.624 160.07 71.0765 162.232 73.662C164.394 76.2474 165.608 79.754 165.608 83.4104C165.608 87.0668 164.394 90.5734 162.232 93.1589C160.07 95.7443 157.138 97.1968 154.08 97.1968V69.624Z" fill="#E6E6E6"/>
<path d="M194.058 124.122H114.449C113.669 124.121 112.921 123.75 112.37 123.091C111.818 122.431 111.508 121.537 111.507 120.604V45.389C111.508 44.4561 111.818 43.5618 112.37 42.9021C112.921 42.2425 113.669 41.8715 114.449 41.8704H194.058C194.838 41.8715 195.586 42.2425 196.137 42.9021C196.689 43.5618 196.999 44.4561 197 45.389V120.604C196.999 121.537 196.689 122.431 196.137 123.091C195.586 123.75 194.838 124.121 194.058 124.122ZM114.449 42.2844C113.761 42.2853 113.101 42.6127 112.614 43.1947C112.127 43.7768 111.854 44.5659 111.853 45.389V120.604C111.854 121.427 112.127 122.216 112.614 122.798C113.101 123.38 113.761 123.708 114.449 123.708H194.058C194.746 123.708 195.406 123.38 195.893 122.798C196.379 122.216 196.653 121.427 196.654 120.604V45.389C196.653 44.5659 196.379 43.7768 195.893 43.1947C195.406 42.6127 194.746 42.2853 194.058 42.2844H114.449Z" fill="#3F3D56"/>
<path d="M149.082 22.4026H148.736V75.3075H149.082V22.4026Z" fill="#2F2E41"/>
<path d="M149.013 22.5663C148.294 22.5663 147.591 22.3114 146.994 21.8338C146.396 21.3562 145.93 20.6774 145.655 19.8832C145.38 19.089 145.308 18.215 145.448 17.3719C145.588 16.5288 145.935 15.7543 146.443 15.1465C146.951 14.5386 147.599 14.1246 148.304 13.9569C149.009 13.7892 149.739 13.8753 150.404 14.2043C151.068 14.5332 151.635 15.0903 152.035 15.8051C152.434 16.5199 152.647 17.3602 152.647 18.2199C152.647 19.3726 152.264 20.4782 151.583 21.2933C150.901 22.1084 149.977 22.5663 149.013 22.5663ZM149.013 14.2874C148.362 14.2874 147.727 14.518 147.186 14.9501C146.645 15.3822 146.224 15.9964 145.975 16.715C145.726 17.4335 145.661 18.2242 145.788 18.9871C145.915 19.7499 146.228 20.4506 146.688 21.0006C147.147 21.5505 147.733 21.9251 148.371 22.0768C149.009 22.2285 149.67 22.1507 150.271 21.853C150.872 21.5554 151.385 21.0513 151.747 20.4047C152.108 19.758 152.301 18.9976 152.301 18.2199C152.301 17.1769 151.954 16.1767 151.338 15.4392C150.721 14.7017 149.885 14.2874 149.013 14.2874Z" fill="#2F2E41"/>
<path d="M126.442 112.921C127.7 112.921 128.72 111.701 128.72 110.196C128.72 108.692 127.7 107.472 126.442 107.472C125.184 107.472 124.164 108.692 124.164 110.196C124.164 111.701 125.184 112.921 126.442 112.921Z" fill="#3F3D56"/>
<path d="M182.385 112.921C183.643 112.921 184.663 111.701 184.663 110.196C184.663 108.692 183.643 107.472 182.385 107.472C181.127 107.472 180.107 108.692 180.107 110.196C180.107 111.701 181.127 112.921 182.385 112.921Z" fill="#E6E6E6"/>
<path d="M126.442 58.7311C127.7 58.7311 128.72 57.5112 128.72 56.0064C128.72 54.5017 127.7 53.2818 126.442 53.2818C125.184 53.2818 124.164 54.5017 124.164 56.0064C124.164 57.5112 125.184 58.7311 126.442 58.7311Z" fill="#3F3D56"/>
<path d="M182.385 58.7311C183.643 58.7311 184.663 57.5112 184.663 56.0064C184.663 54.5017 183.643 53.2818 182.385 53.2818C181.127 53.2818 180.107 54.5017 180.107 56.0064C180.107 57.5112 181.127 58.7311 182.385 58.7311Z" fill="#E6E6E6"/>
<path d="M130.508 36.2204C132.419 36.2204 133.969 34.3671 133.969 32.0809C133.969 29.7948 132.419 27.9415 130.508 27.9415C128.596 27.9415 127.047 29.7948 127.047 32.0809C127.047 34.3671 128.596 36.2204 130.508 36.2204Z" fill="#F2F2F2"/>
<path d="M165.921 9.93477C167.833 9.93477 169.382 8.08146 169.382 5.79529C169.382 3.50913 167.833 1.65582 165.921 1.65582C164.01 1.65582 162.46 3.50913 162.46 5.79529C162.46 8.08146 164.01 9.93477 165.921 9.93477Z" fill="#3F3D56"/>
<path d="M147.974 23.8082C149.886 23.8082 151.436 21.9549 151.436 19.6687C151.436 17.3825 149.886 15.5292 147.974 15.5292C146.063 15.5292 144.513 17.3825 144.513 19.6687C144.513 21.9549 146.063 23.8082 147.974 23.8082Z" fill="#6C63FF"/>
</g>
<defs>
<clipPath id="clip0">
<rect width="197" height="188" fill="white"/>
</clipPath>
</defs>
</svg>

