<svg width="243" height="194" viewBox="0 0 243 194" fill="none" xmlns="http://www.w3.org/2000/svg">
<g clip-path="url(#clip0)">
<path d="M43.1865 132.383C43.3742 132.707 43.624 132.991 43.9216 133.219C44.2192 133.447 44.5588 133.614 44.9209 133.71C45.283 133.806 45.6606 133.83 46.032 133.781C46.4034 133.731 46.7614 133.608 47.0854 133.42C47.4094 133.232 47.6932 132.982 47.9204 132.683C48.1477 132.385 48.314 132.045 48.4098 131.683C48.5056 131.321 48.529 130.943 48.4787 130.571C48.4285 130.2 48.3055 129.842 48.1168 129.518C48.0371 129.384 47.9474 129.257 47.8483 129.137L50.2464 112.036L50.3183 111.524L50.8054 108.034L50.8772 107.531L50.6118 107.544L45.9656 107.756L44.7196 107.812L44.5635 110.996L43.6798 128.893C43.2182 129.335 42.9185 129.919 42.829 130.552C42.7395 131.185 42.8654 131.83 43.1865 132.383Z" fill="#FFB8B8"/>
<path d="M50.3045 111.679L44.4047 111.138C44.0987 111.109 43.8166 110.96 43.6198 110.724C43.423 110.487 43.3276 110.183 43.3543 109.877L44.4486 97.6018C44.5016 97.0056 44.6736 96.4261 44.9545 95.8976C45.2353 95.3691 45.6193 94.9024 46.0836 94.5249C46.5479 94.1475 47.0832 93.8671 47.6577 93.7004C48.2323 93.5336 48.8345 93.4838 49.4286 93.554C50.0227 93.6241 50.5967 93.8128 51.1167 94.1089C51.6366 94.4049 52.0919 94.8023 52.4557 95.2775C52.8194 95.7527 53.0842 96.2961 53.2343 96.8755C53.3844 97.4548 53.4169 98.0585 53.3297 98.6506L51.5607 110.691C51.52 110.966 51.3817 111.218 51.1709 111.401C50.9601 111.583 50.6908 111.684 50.4121 111.684C50.3765 111.684 50.3405 111.683 50.3045 111.679Z" fill="#DAC493"/>
<path d="M45.8333 101.762C45.2366 100.071 45.2089 98.231 45.7545 96.5228C46.3001 94.8145 47.3891 93.3316 48.8553 92.3001C51.0801 90.7772 54.1245 90.2305 57.4031 94.1355C63.9602 101.945 65.6776 110.536 65.6776 110.536L52.251 112.723C52.251 112.723 47.6845 107.139 45.8333 101.762Z" fill="#DAC493"/>
<g opacity="0.2">
<path opacity="0.2" d="M54.2835 92.2611C53.2918 94.9949 52.2791 97.8386 52.2135 100.891C52.1482 103.223 52.6859 105.533 53.7747 107.596C54.8268 109.504 56.3633 110.899 58.0549 111.482C58.3725 111.617 58.7224 111.656 59.062 111.596C59.2507 111.543 59.4221 111.441 59.5593 111.301C59.6965 111.161 59.7947 110.988 59.844 110.798C59.9971 110.259 59.8132 109.662 59.6322 109.14C57.625 103.348 56.652 98.3166 54.6448 92.5249L54.2835 92.2611Z" fill="black"/>
</g>
<path d="M67.5483 189.736L71.3764 189.735L73.1975 174.963L67.5477 174.963L67.5483 189.736Z" fill="#FFB8B8"/>
<path d="M78.7593 193.292L66.7282 193.292L66.728 188.641L74.1107 188.641C74.7211 188.641 75.3256 188.761 75.8896 188.995C76.4535 189.229 76.966 189.571 77.3976 190.003C77.8293 190.435 78.1717 190.948 78.4053 191.512C78.639 192.076 78.7592 192.681 78.7593 193.292Z" fill="#2F2E41"/>
<path d="M36.0759 186.395L39.7107 187.597L46.0743 174.143L40.7096 172.369L36.0759 186.395Z" fill="#FFB8B8"/>
<path d="M45.6048 193.292L34.1815 189.515L35.6403 185.099L42.65 187.417C43.8206 187.804 44.7895 188.64 45.3436 189.742C45.8977 190.844 45.9917 192.121 45.6048 193.292L45.6048 193.292Z" fill="#2F2E41"/>
<path d="M54.261 88.4268C58.4965 88.4268 61.93 84.9916 61.93 80.754C61.93 76.5164 58.4965 73.0811 54.261 73.0811C50.0255 73.0811 46.5919 76.5164 46.5919 80.754C46.5919 84.9916 50.0255 88.4268 54.261 88.4268Z" fill="#FFB8B8"/>
<path d="M60.9758 185.623L57.4207 162.148C57.3828 161.897 57.2591 161.668 57.0707 161.498C56.8823 161.329 56.6409 161.23 56.3879 161.219C56.1348 161.208 55.8858 161.285 55.6834 161.438C55.4809 161.59 55.3377 161.808 55.2781 162.054L49.8644 184.426C49.7791 184.769 49.5689 185.067 49.2749 185.263C48.981 185.458 48.6246 185.537 48.2757 185.483L33.3426 183.082C33.1446 183.05 32.9557 182.976 32.7886 182.865C32.6215 182.755 32.4801 182.609 32.3738 182.439C32.2675 182.269 32.1989 182.078 32.1725 181.879C32.1462 181.68 32.1626 181.478 32.2209 181.286L51.6927 117.058C51.7481 116.875 51.7546 116.681 51.7118 116.495L51.0634 113.684C50.9922 113.38 51.0251 113.06 51.1567 112.776C51.2884 112.492 51.5113 112.26 51.7899 112.118C54.4414 110.764 61.1557 107.95 66.2254 111.033C66.3899 111.133 66.5323 111.266 66.6439 111.423C66.7556 111.58 66.834 111.759 66.8746 111.947L82.086 183.476C82.1274 183.67 82.127 183.872 82.085 184.066C82.043 184.26 81.9602 184.443 81.8422 184.603C81.7241 184.763 81.5735 184.897 81.4002 184.994C81.227 185.091 81.035 185.151 80.837 185.169L62.4904 186.813C62.4481 186.816 62.4061 186.818 62.3645 186.818C62.0286 186.817 61.704 186.697 61.4493 186.477C61.1946 186.258 61.0266 185.955 60.9758 185.623Z" fill="#2F2E41"/>
<path d="M73.115 127.183C73.2974 126.811 73.3959 126.403 73.4038 125.989C73.4117 125.574 73.3286 125.163 73.1604 124.784C72.9922 124.405 72.7431 124.068 72.4305 123.796C72.1179 123.523 71.7494 123.323 71.3511 123.209L61.7673 103.613L56.8234 107.297L67.7626 125.342C67.6151 126.024 67.7228 126.737 68.0654 127.345C68.408 127.953 68.9616 128.414 69.6213 128.641C70.2811 128.868 71.0011 128.845 71.645 128.576C72.2889 128.308 72.812 127.812 73.115 127.183H73.115Z" fill="#FFB8B8"/>
<path d="M56.2224 108.52L50.2587 97.7394C49.8979 97.0914 49.7044 96.3636 49.6955 95.6219C49.6866 94.8802 49.8628 94.148 50.208 93.4915C50.4902 92.9388 50.8895 92.4543 51.378 92.0717C52.0079 91.5696 52.7614 91.2468 53.5593 91.1374C54.3571 91.0279 55.1697 91.1358 55.9114 91.4496C56.943 91.8983 57.7747 92.7094 58.2493 93.7298L63.4769 104.598C63.6059 104.867 63.6273 105.174 63.5366 105.457C63.4459 105.741 63.25 105.979 62.9893 106.122L57.7995 108.976C57.5297 109.124 57.2124 109.159 56.9169 109.074C56.6213 108.988 56.3716 108.789 56.2224 108.52Z" fill="#DAC493"/>
<path d="M50.4531 74.057C51.0901 73.8345 51.6834 73.5027 52.2063 73.0763C52.4655 72.8598 52.6647 72.5803 52.7846 72.2646C52.9046 71.9489 52.9414 71.6076 52.8915 71.2735C52.6867 70.3572 51.6149 69.8567 50.682 69.9599C49.7492 70.063 48.9318 70.6067 48.1556 71.1346C47.472 71.5996 46.7669 72.0867 46.3408 72.7955C45.9148 73.5042 45.8497 74.5019 46.4163 75.1041C46.9724 75.6951 47.9472 75.7042 48.6752 75.3461C49.4033 74.9879 49.9421 74.3435 50.4583 73.7173L50.4531 74.057Z" fill="#2F2E41"/>
<path d="M48.3567 71.3861C48.7564 69.261 46.6616 67.2402 44.5011 67.1806C42.3407 67.121 40.3697 68.5633 39.16 70.3553C36.6041 74.1413 36.89 79.1295 37.6529 83.634C38.4157 88.1386 39.5527 92.787 38.3836 97.2035C37.7194 99.584 36.4249 101.741 34.6368 103.446C32.8487 105.152 30.6334 106.342 28.225 106.892C30.3528 108.449 33.3914 107.934 35.7126 106.685C40.8677 103.91 43.9302 97.6945 42.9904 91.914C42.5268 89.0629 41.2107 86.4319 40.3285 83.6815C39.4462 80.9312 39.0269 77.8194 40.3173 75.2354C41.6077 72.6514 45.1346 71.0766 47.5342 72.6828L48.3567 71.3861Z" fill="#2F2E41"/>
<path d="M54.08 83.8298C53.6563 82.5867 53.2985 80.9961 54.6966 80.2787C54.9986 80.1323 55.3268 80.0477 55.6619 80.03C55.997 80.0122 56.3323 80.0617 56.6481 80.1755C57.9628 80.6196 59.4175 80.9932 60.8251 80.7754C61.3498 80.709 61.8558 80.5378 62.3131 80.272C62.7704 80.0061 63.1697 79.651 63.4872 79.2278C64.4942 77.771 64.0551 75.6535 62.8568 74.3496C62.1191 73.5743 61.169 73.0343 60.1256 72.7972C59.0823 72.5601 57.9922 72.6365 56.9921 73.0168C55.3355 71.8297 53.0467 71.7261 51.1575 72.4901C49.2683 73.2542 47.7632 74.7951 46.7512 76.5646C45.8428 78.08 45.378 79.82 45.4096 81.5867C45.4734 82.8245 45.8344 84.0287 46.4621 85.0973C47.0897 86.1659 47.9654 87.0675 49.0152 87.7257C49.4219 87.9929 49.8916 88.1485 50.3773 88.1769C50.863 88.2053 51.3477 88.1055 51.7827 87.8875C51.7827 87.8875 53.0059 87.1997 53.5566 86.1789C53.9796 85.3947 54.3063 84.494 54.08 83.8298Z" fill="#2F2E41"/>
<path d="M119.278 194H0.312245C0.229433 194 0.150012 193.967 0.0914543 193.908C0.0328969 193.85 0 193.77 0 193.688C0 193.605 0.0328969 193.525 0.0914543 193.467C0.150012 193.408 0.229433 193.375 0.312245 193.375H119.278C119.36 193.375 119.44 193.408 119.498 193.467C119.557 193.525 119.59 193.605 119.59 193.688C119.59 193.77 119.557 193.85 119.498 193.908C119.44 193.967 119.36 194 119.278 194Z" fill="#3F3D56"/>
<path d="M190.527 120.073H152.701C151.671 120.072 150.684 119.662 149.956 118.933C149.227 118.205 148.818 117.217 148.817 116.187V55.317C148.818 54.2867 149.227 53.2991 149.956 52.5706C150.684 51.8421 151.671 51.4324 152.701 51.4312H190.527V120.073ZM152.701 52.056C151.836 52.0569 151.008 52.4008 150.397 53.0122C149.786 53.6235 149.442 54.4524 149.441 55.317V116.187C149.442 117.052 149.786 117.881 150.397 118.492C151.008 119.103 151.836 119.447 152.701 119.448H189.902V52.056H152.701Z" fill="#3F3D56"/>
<path d="M189.549 51.4312H227.375C228.405 51.4324 229.392 51.8421 230.12 52.5706C230.848 53.2991 231.258 54.2867 231.259 55.317V116.187C231.258 117.217 230.848 118.205 230.12 118.933C229.392 119.662 228.405 120.072 227.375 120.073H189.549V51.4312Z" fill="#3F3D56"/>
<path d="M162.348 35.6678H161.921V55.5306H162.348V35.6678Z" fill="#2F2E41"/>
<path d="M162.263 36.0949C161.376 36.0949 160.509 35.8318 159.772 35.339C159.035 34.8462 158.46 34.1457 158.121 33.3261C157.782 32.5066 157.693 31.6047 157.866 30.7347C158.039 29.8647 158.466 29.0655 159.093 28.4382C159.72 27.811 160.518 27.3838 161.388 27.2107C162.258 27.0377 163.159 27.1265 163.978 27.466C164.797 27.8054 165.497 28.3803 165.99 29.1179C166.483 29.8555 166.746 30.7226 166.746 31.6097C166.746 32.7993 166.273 33.9401 165.433 34.7812C164.592 35.6223 163.452 36.0949 162.263 36.0949ZM162.263 27.5517C161.46 27.5517 160.676 27.7897 160.009 28.2356C159.342 28.6815 158.822 29.3153 158.515 30.0568C158.208 30.7983 158.128 31.6142 158.285 32.4014C158.441 33.1886 158.827 33.9116 159.395 34.4792C159.962 35.0467 160.685 35.4332 161.471 35.5897C162.258 35.7463 163.074 35.666 163.815 35.3588C164.556 35.0517 165.189 34.5316 165.635 33.8642C166.081 33.1969 166.319 32.4123 166.319 31.6097C166.319 30.5335 165.891 29.5013 165.131 28.7403C164.37 27.9793 163.338 27.5517 162.263 27.5517Z" fill="#2F2E41"/>
<path d="M206.031 8.97034H205.604V54.8899H206.031V8.97034Z" fill="#2F2E41"/>
<path d="M205.945 8.97032C205.058 8.97032 204.192 8.70727 203.455 8.21444C202.717 7.7216 202.143 7.02112 201.803 6.20156C201.464 5.382 201.375 4.48019 201.548 3.61015C201.721 2.74012 202.148 1.94094 202.775 1.31368C203.402 0.686416 204.201 0.259244 205.071 0.0861833C205.94 -0.0868776 206.842 0.00194278 207.661 0.341414C208.48 0.680885 209.18 1.25576 209.673 1.99334C210.165 2.73092 210.428 3.59809 210.428 4.48517C210.428 5.6747 209.956 6.81552 209.115 7.65665C208.274 8.49778 207.134 8.97032 205.945 8.97032ZM205.945 0.427165C205.143 0.427164 204.359 0.665159 203.692 1.11106C203.025 1.55696 202.505 2.19073 202.198 2.93224C201.891 3.67374 201.811 4.48967 201.967 5.27684C202.124 6.06402 202.51 6.78709 203.077 7.35461C203.644 7.92213 204.367 8.30862 205.154 8.4652C205.941 8.62178 206.756 8.54141 207.497 8.23427C208.238 7.92713 208.872 7.40701 209.318 6.73967C209.763 6.07233 210.001 5.28776 210.001 4.48517C210.001 3.40892 209.574 2.37675 208.813 1.61573C208.053 0.854705 207.021 0.427165 205.945 0.427165Z" fill="#2F2E41"/>
<path d="M190.059 100.299C186.287 100.299 182.671 98.7999 180.004 96.132C177.337 93.464 175.839 89.8455 175.839 86.0724C175.839 82.2993 177.337 78.6808 180.004 76.0128C182.671 73.3449 186.287 71.846 190.059 71.846V100.299Z" fill="#DAC493"/>
<path d="M190.059 71.846C193.83 71.846 197.446 73.3449 200.113 76.0128C202.78 78.6808 204.278 82.2993 204.278 86.0724C204.278 89.8455 202.78 93.464 200.113 96.132C197.446 98.7999 193.83 100.299 190.059 100.299V71.846Z" fill="#E6E6E6"/>
<path d="M239.371 128.084H141.173C140.211 128.083 139.288 127.7 138.608 127.019C137.928 126.338 137.545 125.416 137.544 124.453V46.8376C137.545 45.8749 137.928 44.9521 138.608 44.2714C139.288 43.5907 140.211 43.2078 141.173 43.2067H239.371C240.333 43.2078 241.256 43.5907 241.936 44.2714C242.616 44.9521 242.999 45.8749 243 46.8376V124.453C242.999 125.416 242.616 126.338 241.936 127.019C241.256 127.7 240.333 128.083 239.371 128.084ZM141.173 43.6339C140.324 43.6349 139.51 43.9727 138.91 44.5733C138.31 45.1739 137.972 45.9882 137.971 46.8376V124.453C137.972 125.302 138.31 126.117 138.91 126.717C139.51 127.318 140.324 127.656 141.173 127.657H239.371C240.22 127.656 241.034 127.318 241.634 126.717C242.234 126.117 242.572 125.302 242.573 124.453V46.8376C242.572 45.9882 242.234 45.1739 241.634 44.5733C241.034 43.9727 240.22 43.6349 239.371 43.6339H141.173Z" fill="#3F3D56"/>
<path d="M183.893 23.1176H183.466V77.7109H183.893V23.1176Z" fill="#2F2E41"/>
<path d="M183.808 23.2865C182.921 23.2865 182.054 23.0234 181.317 22.5306C180.58 22.0378 180.005 21.3373 179.666 20.5177C179.327 19.6982 179.238 18.7964 179.411 17.9263C179.584 17.0563 180.011 16.2571 180.638 15.6298C181.265 15.0026 182.063 14.5754 182.933 14.4023C183.803 14.2293 184.704 14.3181 185.523 14.6576C186.342 14.9971 187.042 15.5719 187.535 16.3095C188.028 17.0471 188.29 17.9143 188.29 18.8013C188.29 19.9909 187.818 21.1317 186.977 21.9728C186.137 22.8139 184.997 23.2865 183.808 23.2865ZM183.808 14.7433C183.005 14.7433 182.221 14.9813 181.554 15.4272C180.887 15.8731 180.367 16.5069 180.06 17.2484C179.753 17.9899 179.673 18.8058 179.829 19.593C179.986 20.3802 180.372 21.1033 180.94 21.6708C181.507 22.2383 182.229 22.6248 183.016 22.7814C183.803 22.9379 184.619 22.8576 185.36 22.5504C186.101 22.2433 186.734 21.7232 187.18 21.0558C187.626 20.3885 187.864 19.6039 187.864 18.8013C187.864 17.7251 187.436 16.6929 186.676 15.9319C185.915 15.1709 184.883 14.7433 183.808 14.7433Z" fill="#2F2E41"/>
<path d="M155.966 116.525C157.519 116.525 158.777 115.266 158.777 113.713C158.777 112.161 157.519 110.902 155.966 110.902C154.414 110.902 153.156 112.161 153.156 113.713C153.156 115.266 154.414 116.525 155.966 116.525Z" fill="#3F3D56"/>
<path d="M224.973 116.525C226.525 116.525 227.783 115.266 227.783 113.713C227.783 112.161 226.525 110.902 224.973 110.902C223.421 110.902 222.162 112.161 222.162 113.713C222.162 115.266 223.421 116.525 224.973 116.525Z" fill="#E6E6E6"/>
<path d="M155.966 60.6055C157.519 60.6055 158.777 59.3467 158.777 57.7939C158.777 56.2411 157.519 54.9823 155.966 54.9823C154.414 54.9823 153.156 56.2411 153.156 57.7939C153.156 59.3467 154.414 60.6055 155.966 60.6055Z" fill="#3F3D56"/>
<path d="M224.973 60.6055C226.525 60.6055 227.783 59.3467 227.783 57.7939C227.783 56.2411 226.525 54.9823 224.973 54.9823C223.421 54.9823 222.162 56.2411 222.162 57.7939C222.162 59.3467 223.421 60.6055 224.973 60.6055Z" fill="#E6E6E6"/>
<path d="M160.982 37.3764C163.34 37.3764 165.251 35.4639 165.251 33.1048C165.251 30.7456 163.34 28.8332 160.982 28.8332C158.624 28.8332 156.712 30.7456 156.712 33.1048C156.712 35.4639 158.624 37.3764 160.982 37.3764Z" fill="#F2F2F2"/>
<path d="M204.664 10.2518C207.022 10.2518 208.934 8.33933 208.934 5.9802C208.934 3.62107 207.022 1.70862 204.664 1.70862C202.306 1.70862 200.395 3.62107 200.395 5.9802C200.395 8.33933 202.306 10.2518 204.664 10.2518Z" fill="#3F3D56"/>
<path d="M182.527 24.568C184.885 24.568 186.796 22.6555 186.796 20.2964C186.796 17.9373 184.885 16.0248 182.527 16.0248C180.169 16.0248 178.257 17.9373 178.257 20.2964C178.257 22.6555 180.169 24.568 182.527 24.568Z" fill="#DAC493"/>
</g>
<defs>
<clipPath id="clip0">
<rect width="243" height="194" fill="white"/>
</clipPath>
</defs>
</svg>
