<svg width="113" height="114" viewBox="0 0 113 114" fill="none" xmlns="http://www.w3.org/2000/svg">
<path d="M51.5028 0.0463264C37.1714 1.38366 23.7503 8.14163 14.4161 18.6976C6.59903 27.524 2.17291 37.1171 0.334636 49.1353C-0.111545 52.0774 -0.111545 61.5279 0.334636 64.47C2.17291 76.4882 6.59903 86.0813 14.4161 94.9077C22.0191 103.502 32.7453 109.832 43.9355 112.346C48.7007 113.416 50.4141 113.577 56.5 113.577C62.5859 113.577 64.2993 113.416 69.0645 112.346C80.2547 109.832 90.9809 103.502 98.5839 94.9077C106.401 86.0813 110.827 76.4882 112.665 64.47C113.112 61.5279 113.112 52.0774 112.665 49.1353C110.827 37.1171 106.401 27.524 98.5839 18.6976C90.9809 10.1031 80.2547 3.77302 69.0645 1.25884C64.7097 0.278131 62.6752 0.0641576 57.3031 0.0106644C54.5546 -0.00716667 51.9489 -0.00716687 51.5028 0.0463264ZM61.6936 4.02266C68.0829 4.66458 74.0796 6.39419 79.8799 9.30066C89.5353 14.1329 97.2989 21.5684 102.582 31.0367C105.758 36.7249 107.918 43.3045 108.828 50.116C109.149 52.5054 109.149 61.0999 108.828 63.4893C106.704 79.3411 98.1912 92.8214 84.7879 101.541C82.2536 103.199 77.5598 105.535 74.6685 106.605C70.6886 108.067 65.9412 109.155 61.6936 109.583C59.3199 109.814 53.6801 109.814 51.3064 109.583C44.9171 108.941 38.9204 107.211 33.1201 104.305C23.4647 99.4724 15.7011 92.0369 10.4183 82.5686C7.24153 76.8804 5.08201 70.3008 4.1718 63.4893C3.85055 61.0999 3.85055 52.5054 4.1718 50.116C6.29562 34.2642 14.8088 20.7839 28.2121 12.0645C30.7464 10.4062 35.4402 8.07031 38.3315 7.00045C42.1686 5.59179 47.0588 4.4506 50.9673 4.04049C53.1447 3.82652 59.534 3.80868 61.6936 4.02266Z" fill="#DAC493"/>
<path d="M65.031 31.3042C64.7276 31.4825 64.7097 32.1423 64.7097 41.0756C64.7097 48.2972 64.7633 50.7223 64.9239 50.8827C65.0488 51.0076 65.7092 51.0967 66.6194 51.0967C67.8866 51.0967 68.1186 51.0432 68.2792 50.7579C68.3863 50.5439 68.4577 48.743 68.4577 46.1575V41.8959L69.1359 41.254C70.0104 40.4159 70.5101 40.1841 71.3668 40.1841C72.1342 40.2019 72.8124 40.6834 73.1515 41.4679C73.2764 41.7354 73.3835 43.7681 73.4549 46.4606L73.5441 51.0076L75.0255 51.061C76.0249 51.0967 76.6139 51.0432 76.7923 50.8827C77.2028 50.5439 77.0601 40.7903 76.6139 39.7918C75.8107 37.9909 74.4008 37.0102 72.5625 37.0102C71.2418 37.0102 70.4387 37.2598 69.3679 37.9909L68.4577 38.615V35.1914C68.4577 33.3013 68.3684 31.6252 68.2792 31.4825C68.0829 31.1616 65.495 31.0189 65.031 31.3042Z" fill="#DAC493"/>
<path d="M29.7291 31.9817C29.2472 32.3562 29.0687 33.533 29.3543 34.3889C29.5149 34.8525 29.7291 35.0665 30.1217 35.2092C31.2283 35.6014 32.781 35.3161 33.1201 34.6921C33.2271 34.5137 33.2985 33.9075 33.2985 33.3726C33.2985 31.9461 32.9594 31.6608 31.3532 31.6608C30.443 31.6608 30.0325 31.7499 29.7291 31.9817Z" fill="#DAC493"/>
<path d="M19.6989 32.4632C16.4686 33.2835 14.3091 35.655 13.5416 39.2034C13.1668 40.9687 13.3096 44.5527 13.8093 45.9257C14.9516 49.171 16.8612 50.7936 20.0559 51.2929C22.3403 51.6316 25.5528 50.9541 26.5166 49.9377C27.052 49.3849 27.2483 47.477 26.8378 46.9421C26.6058 46.6211 26.5344 46.6389 25.4101 47.2452C23.9287 48.0654 22.4474 48.3507 21.1089 48.0654C19.6811 47.7801 18.8066 47.0669 18.1105 45.6404C17.5751 44.5527 17.5216 44.2852 17.4502 42.3417C17.3788 40.5764 17.4323 40.0593 17.7357 39.0251C18.878 35.2806 22.0726 34.3533 25.8384 36.6892C26.7308 37.242 26.9271 37.0102 26.9271 35.3875C26.9271 34.175 26.8914 34.068 26.3917 33.6044C25.0888 32.4632 21.8763 31.9105 19.6989 32.4632Z" fill="#DAC493"/>
<path d="M81.272 32.7485C80.9686 32.909 80.9508 33.5331 80.9508 41.8424V50.7401L81.4505 50.9362C82.1465 51.2037 84.3239 51.061 84.5202 50.7401C84.6273 50.5796 84.6987 46.7994 84.6987 41.7889C84.6987 34.1394 84.663 33.0873 84.4131 32.8377C84.0919 32.4989 81.7896 32.4454 81.272 32.7485Z" fill="white"/>
<path d="M86.9474 32.8377C86.7511 33.3369 86.8403 35.1557 87.0545 35.3697C87.1973 35.5123 88.0361 35.5837 89.6424 35.5837H92.016V43.1619C92.016 51.8456 91.8554 51.0967 93.8008 51.0967C95.7461 51.0967 95.5855 51.8456 95.5855 43.1619V35.5837H97.9592C99.5654 35.5837 100.404 35.5123 100.547 35.3697C100.761 35.1557 100.85 33.3369 100.654 32.8377C100.565 32.588 99.7796 32.5524 93.8008 32.5524C87.8219 32.5524 87.0367 32.588 86.9474 32.8377Z" fill="white"/>
<path d="M42.2936 37.4382C41.776 37.67 41.0443 38.1693 40.6516 38.5259L39.9199 39.1857L39.7949 38.2941C39.7057 37.5809 39.5986 37.3847 39.2952 37.2956C38.7063 37.1351 37.6533 37.1708 37.1535 37.3669L36.6895 37.5452V44.2319V50.9185L37.1 51.0077C37.3142 51.0612 38.0994 51.0968 38.8312 51.0612L40.1697 51.0077L40.259 46.5142L40.3482 42.0208L40.9729 41.3789C42.4542 39.8454 44.0426 39.7563 44.8993 41.1649C45.2205 41.682 45.2562 42.0921 45.2562 46.2111C45.2562 49.4385 45.3097 50.7224 45.4704 50.8828C45.7916 51.2038 48.5401 51.1681 48.8257 50.8294C48.9863 50.6332 49.022 49.3672 48.9684 45.6227C48.8792 40.3803 48.79 39.8276 47.9333 38.5972C46.8803 37.1351 44.114 36.5467 42.2936 37.4382Z" fill="#DAC493"/>
<path d="M56.0895 37.2597C53.5195 37.9552 51.9489 40.3267 51.7348 43.7681C51.592 46.4249 52.0917 48.2258 53.4124 49.688C54.2334 50.5974 55.0722 51.0253 56.5535 51.2928C58.0349 51.5603 59.7482 51.2928 61.0511 50.5974C61.8363 50.1694 61.9613 50.0268 62.1041 49.367C62.3004 48.422 62.104 46.9955 61.7649 46.9955C61.6222 46.9955 61.1581 47.2273 60.7477 47.5304C59.1592 48.6181 57.3745 48.636 56.3929 47.5839C55.8218 46.9598 55.4292 45.5869 55.4292 44.1425C55.4292 41.878 56.2144 40.4158 57.6244 40.0236C58.5167 39.7918 59.1949 39.9344 60.5335 40.6833C61.872 41.4144 62.0327 41.3074 62.0327 39.6669C62.0327 38.5436 61.997 38.4366 61.4972 38.0086C60.3907 37.0814 57.9813 36.7605 56.0895 37.2597Z" fill="#DAC493"/>
<path d="M29.9433 37.3668L29.5506 37.5273L29.5863 44.2674L29.6398 51.0076L30.9784 51.0611C31.7101 51.0967 32.4954 51.0611 32.7096 51.0076L33.1201 50.9184V44.2318C33.1201 39.4531 33.0665 37.5273 32.9237 37.4381C32.5847 37.242 30.3894 37.1707 29.9433 37.3668Z" fill="#DAC493"/>
<path opacity="0.5" d="M52.2167 61.9023C47.7905 62.669 45.3276 63.5962 42.472 65.5577C40.955 66.6097 38.4207 69.1774 37.0465 71.0853L36.0649 72.4583L34.8156 72.5296C32.0314 72.7258 30.0325 74.705 30.0503 77.237C30.0682 79.2341 31.3889 80.6249 33.941 81.3203C34.0481 81.356 34.9583 82.8003 35.9756 84.5656C36.9929 86.313 37.9745 87.8822 38.1708 88.0427C38.3493 88.221 38.7777 88.3636 39.0989 88.3636C39.6343 88.3636 39.7057 88.4349 40.1697 89.5583C40.4553 90.2359 40.7587 90.8778 40.8479 91.0026C40.9907 91.1631 44.0069 91.2166 55.2864 91.1809L69.5642 91.1274L70.3316 89.7901C71.0812 88.4706 71.0991 88.4528 71.8844 88.3993C72.4555 88.3636 72.7946 88.221 73.0444 87.9535C73.2407 87.7395 74.2223 86.1526 75.2218 84.423C77.0244 81.2847 77.0422 81.2669 77.8275 81.0707C78.8626 80.8032 80.0227 79.8939 80.5403 78.931C81.6111 76.8982 80.4332 74.0096 78.0952 72.9754C77.6669 72.7793 76.7567 72.5831 76.0963 72.5296L74.9005 72.4405L73.7048 70.8178C70.1889 66.0926 65.9948 63.3288 60.6049 62.2054C59.3199 61.938 53.2518 61.724 52.2167 61.9023ZM59.6233 63.4893C65.4772 64.4343 69.5999 67.2873 73.7583 73.2785L74.3473 74.0988L75.543 73.9918C76.596 73.9026 76.8637 73.9561 77.5419 74.3127C78.7199 74.919 79.3802 75.8462 79.4694 76.9874C79.5587 78.1642 79.1482 78.9131 78.0595 79.4837C77.3992 79.8404 77.0422 79.8939 75.3289 79.8939C72.973 79.8939 71.5631 79.4837 69.7605 78.2712C69.118 77.8433 68.4934 77.4867 68.3863 77.4867C68.2614 77.4867 67.8687 77.8076 67.4939 78.1821C66.3695 79.3411 64.9596 79.8582 62.7465 79.9473C59.9445 80.0543 58.1063 79.5551 56.4286 78.2177C56.0538 77.9146 55.6255 77.665 55.5006 77.665C55.3578 77.665 54.8402 77.9859 54.3226 78.3782C52.7878 79.5372 51.4671 79.8939 48.7364 79.8939C45.9166 79.876 44.8279 79.5372 43.6143 78.2891C43.1859 77.8433 42.7219 77.4867 42.5613 77.4867C42.4007 77.4867 41.9723 77.7185 41.5975 78.0216C40.0984 79.1984 37.7247 79.983 35.5473 79.983C34.0303 79.983 33.1558 79.7334 32.3348 79.0558C31.1212 78.0573 31.1569 76.2385 32.424 74.9725C33.245 74.1522 34.2444 73.8491 35.6544 73.9918L36.6717 74.1166L37.4213 72.9932C41.187 67.3943 45.4525 64.47 51.2172 63.5071C53.1983 63.1683 57.6422 63.1683 59.6233 63.4893ZM43.0075 79.6977C44.4888 80.8211 46.452 81.4095 48.7364 81.4095C50.7175 81.4095 52.413 81.0172 54.1263 80.1613L55.5719 79.4124L56.3037 79.876C58.0706 80.9994 60.3729 81.5165 62.9429 81.3738C65.2095 81.249 66.5302 80.7498 68.3506 79.3768C68.4755 79.2876 68.886 79.4481 69.4393 79.7869C70.5101 80.4645 72.7589 81.1955 74.2045 81.356C74.7756 81.4095 75.2218 81.5165 75.204 81.5878C75.1683 81.6591 74.4722 82.8895 73.6334 84.316L72.1164 86.9193L69.7248 86.9728C67.6724 87.0263 67.3155 87.0798 67.137 87.3294C66.7622 87.9178 67.2084 88.2745 68.422 88.328L69.5107 88.3814L69.118 89.0412C68.9217 89.3978 68.654 89.7544 68.5469 89.8258C68.4577 89.8971 62.4075 89.9684 55.1258 89.9684H41.8831L41.544 89.2017L41.2227 88.4528L51.6634 88.4171C62.0505 88.3636 62.1219 88.3636 62.4253 87.9892C62.6573 87.7039 62.693 87.5256 62.5681 87.2759C62.3896 86.955 61.9613 86.9371 50.6818 86.9015L38.974 86.848L37.4748 84.2981C36.6538 82.8895 35.9756 81.6948 35.9756 81.6235C35.9756 81.5522 36.7252 81.356 37.6354 81.1955C38.849 80.9637 39.67 80.6784 40.7944 80.1078C41.6332 79.6621 42.3471 79.3054 42.3828 79.2876C42.4185 79.2876 42.7041 79.4659 43.0075 79.6977Z" fill="#DAC493"/>
<path opacity="0.5" d="M54.4654 66.4315C53.7872 67.2518 53.5552 68.2503 53.5552 70.5327C53.5552 72.7616 53.7515 73.5996 54.4833 74.4555C55.0722 75.1688 55.9646 75.1866 56.4821 74.5269C57.1603 73.6531 57.4637 72.3515 57.4637 70.3544C57.4459 68.8744 57.3567 68.2681 57.0533 67.4657C56.4108 65.8253 55.3399 65.3973 54.4654 66.4315ZM56.0538 69.8729C56.1609 71.2638 55.8396 73.2252 55.4827 73.3322C54.9116 73.5283 54.7153 68.8744 55.2507 67.8402L55.4827 67.4123L55.7326 68.0007C55.8575 68.3216 56.0181 69.1597 56.0538 69.8729Z" fill="#DAC493"/>
<path opacity="0.5" d="M47.5585 66.7702C46.1843 67.6439 44.5959 70.1938 44.1675 72.2444C43.9891 73.1716 43.9891 73.3677 44.2568 73.867C44.81 74.9725 45.8987 74.8299 47.2373 73.4747C48.7543 71.9769 49.8965 69.5519 49.8965 67.8757C49.8965 67.1268 49.8251 66.9307 49.4325 66.6276C48.8078 66.1283 48.5223 66.164 47.5585 66.7702ZM48.201 69.2666C47.7548 70.6217 46.0772 73.0289 45.5775 73.0289C45.5061 73.0289 45.4882 72.7615 45.5596 72.4405C45.8095 71.1567 46.7911 69.4092 47.8619 68.3215C48.5044 67.6796 48.6294 68.0006 48.201 69.2666Z" fill="#DAC493"/>
<path opacity="0.5" d="M61.5329 66.467C60.5513 66.9485 60.7298 68.9456 61.997 71.3171C63.6211 74.3662 66.0305 75.5787 66.673 73.653C67.2441 71.9234 64.7454 67.3051 62.8001 66.4849C62.1219 66.2174 62.0684 66.2174 61.5329 66.467ZM63.2284 68.6246C64.2636 69.7301 65.7806 73.0289 65.263 73.0289C64.6562 73.0289 62.6573 69.855 62.3182 68.3393C62.1576 67.6617 62.4075 67.733 63.2284 68.6246Z" fill="#DAC493"/>
</svg>
