<svg width="223" height="203" viewBox="0 0 223 203" fill="none" xmlns="http://www.w3.org/2000/svg">
<g clip-path="url(#clip0)">
<path d="M102.923 5.52561C79.1739 7.74176 56.933 18.9407 41.465 36.4336C28.5109 51.0603 21.1761 66.9575 18.1299 86.8734C17.3905 91.7489 17.3905 107.41 18.1299 112.285C21.1761 132.201 28.5109 148.098 41.465 162.725C54.0642 176.968 71.8391 187.457 90.383 191.624C98.2797 193.397 101.119 193.663 111.204 193.663C121.29 193.663 124.129 193.397 132.025 191.624C150.569 187.457 168.344 176.968 180.944 162.725C193.898 148.098 201.232 132.201 204.279 112.285C205.018 107.41 205.018 91.7489 204.279 86.8734C201.232 66.9575 193.898 51.0603 180.944 36.4336C168.344 22.1911 150.569 11.7013 132.025 7.53492C124.809 5.90974 121.437 5.55516 112.535 5.46651C107.981 5.43696 103.662 5.43696 102.923 5.52561ZM119.811 12.115C130.399 13.1787 140.336 16.045 149.948 20.8614C165.949 28.8691 178.814 41.191 187.568 56.8814C192.833 66.3074 196.412 77.2109 197.92 88.4985C198.452 92.4581 198.452 106.701 197.92 110.66C194.4 136.929 180.293 159.268 158.082 173.717C153.882 176.465 146.103 180.336 141.312 182.109C134.717 184.532 126.85 186.335 119.811 187.044C115.877 187.428 106.531 187.428 102.598 187.044C92.0097 185.98 82.0723 183.114 72.4602 178.297C56.4598 170.29 43.5944 157.968 34.8401 142.277C29.5756 132.851 25.997 121.948 24.4886 110.66C23.9563 106.701 23.9563 92.4581 24.4886 88.4985C28.0081 62.2297 42.1157 39.8908 64.3269 25.4415C68.5267 22.6934 76.3051 18.8226 81.0963 17.0496C87.4551 14.7153 95.5588 12.8242 102.036 12.1445C105.644 11.7899 116.232 11.7604 119.811 12.115Z" fill="#666666"/>
<path d="M125.341 57.3246C124.839 57.6201 124.809 58.7134 124.809 73.5173C124.809 85.4845 124.898 89.5032 125.164 89.7691C125.371 89.976 126.465 90.1237 127.974 90.1237C130.073 90.1237 130.458 90.035 130.724 89.5623C130.902 89.2077 131.02 86.2233 131.02 81.9387V74.8765L132.144 73.8128C133.593 72.424 134.421 72.0399 135.841 72.0399C137.112 72.0694 138.236 72.8672 138.798 74.1674C139.005 74.6106 139.183 77.9792 139.301 82.441L139.449 89.976L141.904 90.0646C143.56 90.1237 144.536 90.0351 144.832 89.7691C145.512 89.2077 145.275 73.0445 144.536 71.3898C143.205 68.4054 140.869 66.7802 137.822 66.7802C135.634 66.7802 134.303 67.1939 132.528 68.4054L131.02 69.4396V63.7662C131.02 60.634 130.872 57.8565 130.724 57.6201C130.399 57.0882 126.11 56.8518 125.341 57.3246Z" fill="black"/>
<path d="M66.8409 58.4474C66.0423 59.068 65.7466 61.0182 66.2198 62.4365C66.486 63.2048 66.8409 63.5594 67.4915 63.7958C69.3252 64.4458 71.8983 63.9731 72.4602 62.9389C72.6377 62.6434 72.756 61.6387 72.756 60.7522C72.756 58.3883 72.194 57.9156 69.5323 57.9156C68.0239 57.9156 67.3437 58.0633 66.8409 58.4474Z" fill="black"/>
<path d="M50.2194 59.2453C44.8662 60.6046 41.2876 64.5345 40.0158 70.4147C39.3947 73.3401 39.6313 79.2794 40.4594 81.5546C42.3523 86.9325 45.5169 89.6214 50.8109 90.4488C54.5966 91.0102 59.9202 89.8874 61.5173 88.2031C62.4045 87.2871 62.7299 84.1254 62.0496 83.2389C61.6651 82.707 61.5468 82.7366 59.6836 83.7412C57.2288 85.1005 54.774 85.5733 52.5559 85.1005C50.1898 84.6277 48.7406 83.4458 47.5872 81.0819C46.6999 79.2794 46.6112 78.8361 46.4929 75.6153C46.3746 72.69 46.4633 71.8331 46.9661 70.1193C48.8589 63.914 54.1529 62.3775 60.3934 66.2484C61.8722 67.1644 62.1975 66.7802 62.1975 64.0913C62.1975 62.082 62.1383 61.9047 61.3102 61.1364C59.1512 59.2453 53.8276 58.3293 50.2194 59.2453Z" fill="black"/>
<path d="M152.255 59.718C151.752 59.984 151.723 61.0182 151.723 74.7879V89.5327L152.551 89.8578C153.704 90.301 157.313 90.0646 157.638 89.5327C157.815 89.2668 157.934 83.0024 157.934 74.6992C157.934 62.0228 157.875 60.2795 157.461 59.8658C156.928 59.3044 153.113 59.2157 152.255 59.718Z" fill="#666666"/>
<path d="M161.66 59.8658C161.335 60.6931 161.483 63.7071 161.838 64.0617C162.074 64.2981 163.464 64.4163 166.126 64.4163H170.06V76.9745C170.06 91.3648 169.793 90.1237 173.017 90.1237C176.241 90.1237 175.975 91.3648 175.975 76.9745V64.4163H179.908C182.57 64.4163 183.96 64.2981 184.197 64.0617C184.552 63.7071 184.7 60.6931 184.374 59.8658C184.226 59.4521 182.925 59.393 173.017 59.393C163.109 59.393 161.808 59.4521 161.66 59.8658Z" fill="#666666"/>
<path d="M87.6621 67.4894C86.8044 67.8736 85.5918 68.7009 84.9411 69.2919L83.7285 70.3852L83.5215 68.9078C83.3736 67.7258 83.1962 67.4008 82.6934 67.2531C81.7174 66.9871 79.9724 67.0462 79.1443 67.3712L78.3753 67.6667V78.7475V89.8283L79.0556 89.976C79.4105 90.0647 80.7118 90.1238 81.9244 90.0647L84.1426 89.976L84.2905 82.5298L84.4383 75.0835L85.4735 74.0197C87.9283 71.4785 90.5605 71.3308 91.9801 73.6651C92.5125 74.522 92.5716 75.2017 92.5716 82.0274C92.5716 87.3757 92.6604 89.5033 92.9265 89.7692C93.4589 90.3011 98.0135 90.242 98.4867 89.6806C98.7529 89.3555 98.8121 87.2576 98.7233 81.0523C98.5755 72.365 98.4276 71.449 97.008 69.4101C95.263 66.9871 90.6788 66.012 87.6621 67.4894Z" fill="black"/>
<path d="M110.524 67.1939C106.265 68.3463 103.662 72.2763 103.308 77.9792C103.071 82.3819 103.899 85.3664 106.088 87.7894C107.448 89.2964 108.838 90.0055 111.293 90.4488C113.748 90.892 116.587 90.4488 118.746 89.2964C120.047 88.5872 120.254 88.3508 120.491 87.2575C120.816 85.6914 120.491 83.3275 119.929 83.3275C119.692 83.3275 118.924 83.7116 118.243 84.214C115.611 86.0164 112.653 86.046 111.027 84.3026C110.08 83.2684 109.43 80.9932 109.43 78.5997C109.43 74.847 110.731 72.424 113.068 71.774C114.546 71.3898 115.67 71.6262 117.888 72.8673C120.107 74.0788 120.373 73.9015 120.373 71.183C120.373 69.3214 120.314 69.1441 119.485 68.4349C117.652 66.8984 113.659 66.3665 110.524 67.1939Z" fill="black"/>
<path d="M67.1958 67.3711L66.5451 67.637L66.6043 78.8065L66.693 89.9759L68.9112 90.0645C70.1238 90.1236 71.4251 90.0645 71.78 89.9759L72.4602 89.8281V78.7474C72.4602 70.8283 72.3715 67.637 72.1349 67.4893C71.573 67.1643 67.9352 67.0461 67.1958 67.3711Z" fill="black"/>
<path opacity="0.5" d="M104.106 108.03C96.7714 109.301 92.69 110.837 87.9579 114.088C85.4439 115.831 81.2442 120.086 78.9669 123.248L77.3402 125.523L75.2699 125.641C70.6561 125.966 67.3437 129.246 67.3732 133.442C67.4028 136.752 69.5914 139.056 73.8207 140.209C73.9982 140.268 75.5065 142.661 77.1923 145.587C78.8781 148.483 80.5048 151.083 80.8301 151.349C81.1259 151.644 81.8357 151.881 82.3681 151.881C83.2553 151.881 83.3736 151.999 84.1426 153.86C84.6158 154.983 85.1186 156.047 85.2665 156.254C85.5031 156.52 90.5014 156.608 109.193 156.549L132.854 156.461L134.125 154.245C135.368 152.058 135.397 152.028 136.698 151.94C137.645 151.881 138.207 151.644 138.621 151.201C138.946 150.846 140.573 148.217 142.229 145.35C145.216 140.15 145.246 140.12 146.547 139.795C148.263 139.352 150.185 137.845 151.043 136.249C152.817 132.881 150.865 128.094 146.991 126.38C146.281 126.055 144.773 125.73 143.678 125.641L141.697 125.494L139.715 122.805C133.889 114.974 126.939 110.394 118.007 108.533C115.877 108.089 105.822 107.735 104.106 108.03ZM116.38 110.66C126.081 112.226 132.913 116.954 139.804 126.882L140.78 128.242L142.761 128.064C144.506 127.917 144.95 128.005 146.074 128.596C148.026 129.601 149.12 131.137 149.268 133.029C149.416 134.979 148.736 136.22 146.932 137.165C145.837 137.756 145.246 137.845 142.407 137.845C138.503 137.845 136.166 137.165 133.179 135.156C132.114 134.447 131.079 133.856 130.902 133.856C130.695 133.856 130.044 134.388 129.423 135.008C127.56 136.929 125.223 137.786 121.556 137.934C116.912 138.111 113.866 137.284 111.086 135.067C110.465 134.565 109.755 134.151 109.548 134.151C109.311 134.151 108.454 134.683 107.596 135.333C105.053 137.254 102.864 137.845 98.3389 137.845C93.6659 137.815 91.8618 137.254 89.8507 135.186C89.1409 134.447 88.3719 133.856 88.1057 133.856C87.8396 133.856 87.1297 134.24 86.5086 134.742C84.0243 136.693 80.0907 137.993 76.4825 137.993C73.9686 137.993 72.5194 137.579 71.1589 136.456C69.1478 134.801 69.2069 131.787 71.3068 129.69C72.6673 128.33 74.3235 127.828 76.66 128.064L78.3458 128.271L79.588 126.41C85.8284 117.131 92.897 112.285 102.45 110.69C105.733 110.128 113.097 110.128 116.38 110.66ZM88.8451 137.52C91.2999 139.382 94.5532 140.357 98.3389 140.357C101.622 140.357 104.431 139.707 107.271 138.288L109.666 137.047L110.879 137.815C113.807 139.677 117.622 140.534 121.881 140.298C125.637 140.091 127.826 139.263 130.842 136.988C131.05 136.84 131.73 137.106 132.647 137.668C134.421 138.791 138.148 140.002 140.543 140.268C141.49 140.357 142.229 140.534 142.2 140.652C142.14 140.77 140.987 142.809 139.597 145.173L137.083 149.487L133.12 149.576C129.719 149.664 129.127 149.753 128.831 150.167C128.21 151.142 128.95 151.733 130.961 151.822L132.765 151.91L132.114 153.003C131.789 153.594 131.345 154.185 131.168 154.304C131.02 154.422 120.994 154.54 108.927 154.54H86.9819L86.4199 153.269L85.8876 152.028L103.189 151.969C120.402 151.881 120.521 151.881 121.023 151.26C121.408 150.787 121.467 150.492 121.26 150.078C120.964 149.546 120.254 149.517 101.563 149.458L82.161 149.369L79.6767 145.144C78.3162 142.809 77.1923 140.829 77.1923 140.711C77.1923 140.593 78.4345 140.268 79.9429 140.002C81.954 139.618 83.3145 139.145 85.1777 138.2C86.5678 137.461 87.7508 136.87 87.81 136.84C87.8691 136.84 88.3423 137.136 88.8451 137.52Z" fill="black"/>
<path opacity="0.5" d="M107.833 115.536C106.709 116.895 106.324 118.55 106.324 122.332C106.324 126.026 106.65 127.414 107.862 128.833C108.838 130.015 110.317 130.044 111.175 128.951C112.299 127.503 112.801 125.346 112.801 122.036C112.772 119.584 112.624 118.579 112.121 117.25C111.056 114.531 109.282 113.822 107.833 115.536ZM110.465 121.239C110.642 123.543 110.11 126.794 109.518 126.971C108.572 127.296 108.247 119.584 109.134 117.87L109.518 117.161L109.933 118.136C110.14 118.668 110.406 120.057 110.465 121.239Z" fill="black"/>
<path opacity="0.5" d="M96.3869 116.097C94.1096 117.545 91.4773 121.77 90.7675 125.169C90.4718 126.705 90.4718 127.03 90.9154 127.857C91.8322 129.689 93.6364 129.453 95.8545 127.207C98.3685 124.725 100.261 120.707 100.261 117.929C100.261 116.688 100.143 116.363 99.4923 115.861C98.4572 115.033 97.984 115.092 96.3869 116.097ZM97.4516 120.234C96.7122 122.48 93.9321 126.469 93.104 126.469C92.9857 126.469 92.9561 126.025 93.0744 125.494C93.4885 123.366 95.1151 120.47 96.8897 118.668C97.9544 117.604 98.1614 118.136 97.4516 120.234Z" fill="black"/>
<path opacity="0.5" d="M119.545 115.595C117.918 116.393 118.214 119.702 120.314 123.632C123.005 128.685 126.998 130.694 128.062 127.503C129.009 124.637 124.868 116.984 121.644 115.624C120.521 115.181 120.432 115.181 119.545 115.595ZM122.354 119.17C124.07 121.002 126.584 126.469 125.726 126.469C124.72 126.469 121.408 121.209 120.846 118.697C120.58 117.575 120.994 117.693 122.354 119.17Z" fill="black"/>
</g>
<defs>
<clipPath id="clip0">
<rect width="223" height="203" fill="white"/>
</clipPath>
</defs>
</svg>

