<svg width="438" height="432" viewBox="0 0 438 432" fill="none" xmlns="http://www.w3.org/2000/svg">
<g clip-path="url(#clip0)">
<path d="M326.732 426.811C320.669 420.452 316.986 410.407 317.952 400.628C318.918 390.849 324.899 381.859 332.658 379.783C340.417 377.706 349.262 383.455 351.619 392.862C352.915 374.724 354.41 355.826 362.179 340.38C369.214 326.394 381.398 316.387 394.602 314.596C407.807 312.806 421.71 319.568 429.946 332.505C438.181 345.441 440.197 364.249 434.429 379.102C430.181 390.043 422.352 398.186 414.151 404.81C387.647 426.036 355.86 434.668 324.638 429.117" fill="#F2F2F2"/>
<path d="M416.888 319.943C405.992 330.958 395.996 343.278 387.046 356.725C373.037 377.697 361.702 401.21 353.434 426.445C352.828 428.286 355.237 429.087 355.835 427.267C369.363 386.254 390.96 350.106 418.649 322.129C419.892 320.872 418.121 318.696 416.888 319.943Z" fill="white"/>
<path d="M107.086 431.163H72.7023C71.5405 431.161 70.4266 430.588 69.6051 429.568C68.7836 428.548 68.3215 427.166 68.3201 425.724V337.019C68.3215 335.577 68.7836 334.195 69.6051 333.175C70.4266 332.155 71.5405 331.582 72.7023 331.58H107.086C108.247 331.582 109.361 332.155 110.183 333.175C111.004 334.195 111.467 335.577 111.468 337.019V425.724C111.467 427.166 111.004 428.548 110.183 429.568C109.361 430.588 108.247 431.161 107.086 431.163Z" fill="#6C63FF"/>
<path d="M188.662 432H154.279C152.938 431.998 151.653 431.336 150.705 430.16C149.757 428.983 149.224 427.388 149.222 425.724V253.336C149.224 251.672 149.757 250.077 150.705 248.9C151.653 247.723 152.938 247.062 154.279 247.06H188.662C190.002 247.062 191.288 247.723 192.236 248.9C193.184 250.077 193.717 251.672 193.718 253.336V425.724C193.717 427.388 193.184 428.983 192.236 430.16C191.288 431.336 190.002 431.998 188.662 432ZM154.279 248.733C153.295 248.735 152.353 249.22 151.658 250.083C150.963 250.946 150.572 252.116 150.571 253.336V425.724C150.572 426.944 150.963 428.114 151.658 428.977C152.353 429.84 153.295 430.325 154.279 430.326H188.662C189.645 430.325 190.587 429.84 191.283 428.977C191.978 428.114 192.369 426.944 192.37 425.724V253.336C192.369 252.116 191.978 250.946 191.283 250.083C190.587 249.22 189.645 248.735 188.662 248.733H154.279Z" fill="#3F3D56"/>
<path d="M270.238 432H235.855C234.514 431.998 233.229 431.336 232.281 430.16C231.333 428.983 230.8 427.388 230.798 425.724V143.711C230.8 142.047 231.333 140.451 232.281 139.275C233.229 138.098 234.514 137.436 235.855 137.435H270.238C271.578 137.436 272.864 138.098 273.812 139.275C274.76 140.451 275.293 142.047 275.294 143.711V425.724C275.293 427.388 274.76 428.983 273.812 430.16C272.864 431.336 271.578 431.998 270.238 432ZM235.855 139.108C234.872 139.11 233.929 139.595 233.234 140.458C232.539 141.321 232.148 142.491 232.147 143.711V425.724C232.148 426.944 232.539 428.114 233.234 428.977C233.929 429.84 234.872 430.325 235.855 430.326H270.238C271.221 430.325 272.164 429.84 272.859 428.977C273.554 428.114 273.945 426.944 273.946 425.724V143.711C273.945 142.491 273.554 141.321 272.859 140.458C272.164 139.595 271.221 139.11 270.238 139.108H235.855Z" fill="#3F3D56"/>
<path d="M352.575 431.582H318.192C317.03 431.58 315.916 431.006 315.095 429.987C314.273 428.967 313.811 427.584 313.81 426.142V28.6462C313.811 27.2041 314.273 25.8215 315.095 24.8018C315.916 23.782 317.03 23.2084 318.192 23.2068H352.575C353.737 23.2084 354.851 23.782 355.673 24.8018C356.494 25.8215 356.956 27.2041 356.958 28.6462V426.142C356.956 427.584 356.494 428.967 355.673 429.987C354.851 431.006 353.737 431.58 352.575 431.582Z" fill="#6C63FF"/>
<path d="M138.733 186.077C138.858 184.856 138.765 183.617 138.462 182.446C138.159 181.274 137.653 180.2 136.98 179.297C136.306 178.395 135.481 177.687 134.563 177.223C133.645 176.76 132.656 176.552 131.666 176.613L119.682 149.325L116.985 161.041L125.196 186.05C125.39 188.107 126.185 190.005 127.431 191.383C128.676 192.761 130.286 193.524 131.955 193.527C133.623 193.53 135.235 192.774 136.484 191.401C137.734 190.027 138.534 188.133 138.733 186.077V186.077Z" fill="#A0616A"/>
<path d="M46.3946 293.823L53.0697 299.873L75.0447 270.79L65.1922 261.862L46.3946 293.823Z" fill="#A0616A"/>
<path d="M61.4188 319.233L40.4383 300.221L46.3562 290.159L59.2306 301.826C61.3805 303.774 62.8188 306.703 63.2292 309.967C63.6396 313.232 62.9883 316.565 61.4188 319.233L61.4188 319.233Z" fill="#2F2E41"/>
<path d="M81.7116 325.844L89.9771 325.843L93.9089 286.271L81.7103 286.272L81.7116 325.844Z" fill="#A0616A"/>
<path d="M105.918 335.369L79.9411 335.37L79.9406 322.913L95.8809 322.912C98.5428 322.912 101.096 324.224 102.978 326.56C104.86 328.896 105.918 332.065 105.918 335.369Z" fill="#2F2E41"/>
<path d="M106.535 171.501C106.535 171.501 110.58 220.037 100.467 253.511L93.0513 317.11H80.2418L81.5902 241.795L76.8709 174.848C76.8709 174.848 86.3095 144.722 106.535 171.501Z" fill="#2F2E41"/>
<path d="M62.7132 174.848L76.1968 232.59L49.9037 284.473L63.0503 298.281L93.0514 240.121L84.287 168.99L62.7132 174.848Z" fill="#2F2E41"/>
<path d="M97.0991 45.3682C106.244 45.3682 113.658 36.1661 113.658 24.8147C113.658 13.4633 106.244 4.26123 97.0991 4.26123C87.954 4.26123 80.5405 13.4633 80.5405 24.8147C80.5405 36.1661 87.954 45.3682 97.0991 45.3682Z" fill="#A0616A"/>
<path d="M83.2757 53.0891C83.2757 53.0891 93.3884 44.7208 104.85 63.1311L107.883 179.033C107.883 179.033 99.119 163.97 80.916 178.196C62.7131 192.422 58.668 176.522 58.668 176.522C58.668 176.522 45.8585 56.8549 83.2757 53.0891Z" fill="#CCCCCC"/>
<path d="M104.034 62.8389C106.942 63.0341 109.69 64.5573 111.748 67.1157C113.806 69.674 115.03 73.0867 115.183 76.6971L117.322 127.149L131.48 174.848L123.39 183.217L97.0964 126.312L91.7132 79.5388C91.4665 77.395 91.6058 75.2099 92.121 73.141C92.6362 71.072 93.5145 69.1705 94.6928 67.5734C95.8711 65.9763 97.32 64.7233 98.9352 63.9047C100.55 63.086 102.292 62.722 104.034 62.8389Z" fill="#CCCCCC"/>
<path d="M84.9321 40.2319C87.6391 43.8111 92.6664 41.8897 93.0191 37C93.0468 36.6203 93.0448 36.2383 93.0132 35.8591C92.831 33.6932 91.8229 31.7268 92.0644 29.4398C92.1191 28.8707 92.2899 28.3282 92.5607 27.864C94.7179 24.2785 99.7816 29.4677 101.817 26.2218C103.066 24.2315 101.598 21.0979 102.556 18.8735C103.821 15.9375 107.566 17.3858 109.914 15.778C112.527 13.989 112.371 9.01278 110.651 5.986C108.553 2.29473 104.875 0.325024 101.243 0.0411287C97.6113 -0.242767 94.0043 0.975946 90.6134 2.61619C86.7608 4.47982 82.9403 7.05543 80.5695 11.2604C77.6862 16.374 77.4088 23.2488 78.8507 29.2283C79.7279 32.8657 82.7215 37.3091 84.9321 40.2319Z" fill="#2F2E41"/>
<path d="M437.197 431.645H0.802726C0.59023 431.644 0.386641 431.539 0.2366 431.352C0.0865598 431.165 0.00231934 430.912 0.00231934 430.649C0.00231934 430.385 0.0865598 430.132 0.2366 429.945C0.386641 429.758 0.59023 429.653 0.802726 429.652H437.197C437.41 429.653 437.613 429.758 437.763 429.945C437.913 430.132 437.998 430.385 437.998 430.649C437.998 430.912 437.913 431.165 437.763 431.352C437.613 431.539 437.41 431.644 437.197 431.645Z" fill="#3F3D56"/>
</g>
<defs>
<clipPath id="clip0">
<rect width="438" height="432" fill="white"/>
</clipPath>
</defs>
</svg>

