<svg width="293" height="156" viewBox="0 0 293 156" fill="none" xmlns="http://www.w3.org/2000/svg">
<g clip-path="url(#clip0)">
<path opacity="0.1" d="M270.535 123.357C270.209 124.061 269.883 124.755 269.559 125.44C269.052 126.505 268.552 127.548 268.059 128.571C267.84 129.024 267.62 129.469 267.406 129.913C264.987 134.859 262.727 139.234 260.808 142.832C259.067 146.091 256.481 148.823 253.323 150.739C250.164 152.656 246.548 153.688 242.854 153.726L200.183 154.19H199.733L196.075 154.23L192.946 154.263L183.352 154.368H182.963L178.079 154.421H177.93L147.823 154.748L120.949 155.029L117.822 155.063L98.4077 155.274H98.3852L85.7937 155.409H85.6587L45.8443 155.84L33.9338 155.969C31.392 155.998 28.861 155.635 26.4295 154.894C22.1982 153.615 18.3956 151.206 15.4306 147.927C10.3152 142.288 6.58704 135.71 4.08282 128.571C3.72078 127.54 3.38314 126.497 3.06987 125.44C-5.59925 96.122 4.96915 58.2966 23.99 32.9839C24.7872 31.9254 25.5976 30.8933 26.4211 29.8874L26.4408 29.8649C32.2905 22.6809 38.8493 16.6793 45.8359 12.4117C58.2163 4.83651 71.9333 2.70273 85.4251 9.06186C96.8405 14.4442 107.499 16.9749 117.831 17.6617C118.875 17.7293 119.919 17.78 120.957 17.8109C144.657 18.5569 166.869 10.0133 192.952 4.49871C193.99 4.27914 195.031 4.06238 196.081 3.85688C214.688 0.152315 235.33 -1.80131 259.877 2.30581C262.427 2.72262 264.944 3.32475 267.406 4.10742C268.489 4.45648 269.532 4.83182 270.535 5.23343C282.252 10.0021 288.642 18.8131 291.357 29.8536C291.614 30.8783 291.836 31.9208 292.024 32.9811C296.838 59.538 282.738 97.2086 270.535 123.357Z" fill="#DAC493"/>
<g opacity="0.1">
<path opacity="0.1" d="M45.8358 12.4114V155.871L33.9253 156C31.3835 156.029 28.8525 155.666 26.421 154.925V29.8646H26.4407C32.2905 22.6722 38.8493 16.6706 45.8358 12.4114Z" fill="#DAC493"/>
<path opacity="0.1" d="M292.038 32.9836H23.9899C24.7871 31.9252 25.5975 30.893 26.421 29.8871V29.8646H291.371C291.628 30.8836 291.85 31.9233 292.038 32.9836Z" fill="#DAC493"/>
<path opacity="0.1" d="M270.535 5.23593V125.437H269.559C269.052 126.501 268.552 127.545 268.059 128.568C267.84 129.021 267.62 129.466 267.406 129.91V4.09866C268.489 4.44773 269.532 4.82681 270.535 5.23593Z" fill="#DAC493"/>
<path opacity="0.1" d="M196.081 3.84814V154.241L192.952 154.274V4.48997C193.99 4.2704 195.031 4.05364 196.081 3.84814Z" fill="#DAC493"/>
<path opacity="0.1" d="M120.957 17.8022V155.057L117.831 155.091V17.653C118.875 17.7206 119.919 17.76 120.957 17.8022Z" fill="#DAC493"/>
<path opacity="0.1" d="M269.559 125.44C269.052 126.504 268.552 127.548 268.059 128.57H4.08274C3.7207 127.54 3.38306 126.497 3.06979 125.44H269.559Z" fill="#DAC493"/>
</g>
<path d="M64.8848 74.8317H59.5387V91.0631H64.8848V74.8317Z" fill="#3F3D56"/>
<path d="M208.76 73.9872H203.413V91.1588H208.76V73.9872Z" fill="#3F3D56"/>
<path d="M242.854 150.224V153.883L200.107 154.277L199.652 154.286L183.405 154.435L183.017 154.44L178.079 154.483H177.932L147.831 154.761L98.4189 155.22H98.3767L85.8134 155.338L85.6783 155.341L29.8538 155.854V151.631L42.9798 143.749L69.3164 143.529L69.8792 143.527L70.0649 143.524L70.6276 143.515L83.2726 143.411L83.8381 143.408L84.0182 143.406L84.5809 143.403L88.6355 143.369L88.7425 143.366L98.7453 143.282H98.8269L176.88 142.623L178.79 142.609H178.982L180.439 142.595L191.033 142.508L191.596 142.499L192.116 142.494H192.386L195.681 142.468L196.334 142.46L197.209 142.454L199.953 142.429L204.305 142.392L204.868 142.387L205.847 142.381H206.03L227.052 142.201L242.854 150.224Z" fill="#65617D"/>
<path opacity="0.2" d="M242.854 150.224V153.883L200.107 154.277L199.652 154.286L183.405 154.435L183.017 154.44L178.079 154.483H177.932L147.831 154.761L98.4189 155.22H98.3767L85.8134 155.338L85.6783 155.341L29.8538 155.854V151.631L42.9798 143.749L69.3164 143.529L69.8792 143.527L70.0649 143.524L70.6276 143.515L83.2726 143.411L83.8381 143.408L84.0182 143.406L84.5809 143.403L88.6355 143.369L88.7425 143.366L98.7453 143.282H98.8269L176.88 142.623L178.79 142.609H178.982L180.439 142.595L191.033 142.508L191.596 142.499L192.116 142.494H192.386L195.681 142.468L196.334 142.46L197.209 142.454L199.953 142.429L204.305 142.392L204.868 142.387L205.847 142.381H206.03L227.052 142.201L242.854 150.224Z" fill="black"/>
<path d="M83.3148 136.151V143.045C83.3149 143.372 83.2225 143.692 83.0481 143.968C82.8738 144.244 82.6248 144.465 82.33 144.605C82.1104 144.711 81.8704 144.769 81.6265 144.774L71.8066 144.982C71.5443 144.988 71.2842 144.933 71.0469 144.822C70.7469 144.684 70.4927 144.463 70.3146 144.185C70.1365 143.907 70.042 143.584 70.0424 143.254V136.151H83.3148Z" fill="#3F3D56"/>
<path opacity="0.1" d="M83.3148 136.151V143.045C83.3149 143.372 83.2225 143.692 83.0481 143.968C82.8738 144.244 82.6248 144.465 82.33 144.605C82.1104 144.711 81.8704 144.769 81.6265 144.774L71.8066 144.982C71.5443 144.988 71.2842 144.933 71.0469 144.822C70.7469 144.684 70.4927 144.463 70.3146 144.185C70.1365 143.907 70.042 143.584 70.0424 143.254V136.151H83.3148Z" fill="black"/>
<path d="M83.8775 136.151V143.045C83.8777 143.372 83.7852 143.692 83.6109 143.968C83.4366 144.244 83.1875 144.465 82.8927 144.605C82.6732 144.711 82.4332 144.769 82.1893 144.774L72.3693 144.982C72.1071 144.988 71.8469 144.933 71.6096 144.822C71.3096 144.684 71.0554 144.463 70.8773 144.185C70.6992 143.907 70.6048 143.584 70.6051 143.254V136.151H83.8775Z" fill="#3F3D56"/>
<path d="M204.868 136.151H191.596V145.019H204.868V136.151Z" fill="#3F3D56"/>
<path opacity="0.1" d="M204.868 136.151H191.596V145.019H204.868V136.151Z" fill="black"/>
<path d="M204.305 136.151H191.033V145.019H204.305V136.151Z" fill="#3F3D56"/>
<path opacity="0.1" d="M64.8848 74.8289V76.4419L59.5387 76.3039V74.8289H64.8848Z" fill="black"/>
<path d="M100.073 29.3888L93.6496 75.5552C93.6089 75.8501 93.4609 76.1196 93.2341 76.3122C93.0073 76.5049 92.7174 76.6072 92.42 76.5995L40.9849 75.2652L40.0085 75.2399C39.8385 75.2359 39.6713 75.196 39.5177 75.123C39.3641 75.0499 39.2277 74.9453 39.1172 74.816C39.0068 74.6866 38.9248 74.5354 38.8767 74.3722C38.8286 74.2091 38.8154 74.0376 38.838 73.869L46.0496 25.5407C46.0961 25.2413 46.2531 24.9703 46.4896 24.7811C46.7261 24.5919 47.0249 24.4983 47.327 24.5188L98.9478 28.0151C99.1144 28.0247 99.2771 28.0688 99.4258 28.1446C99.5744 28.2203 99.7058 28.3261 99.8116 28.4551C99.9173 28.5842 99.9952 28.7338 100.04 28.8945C100.085 29.0552 100.097 29.2235 100.073 29.3888Z" fill="#65617D"/>
<path d="M49.5021 27.9137L44.0631 70.5134L91.3339 72.0138L97.1471 30.9145L49.5021 27.9137Z" fill="#DAC493"/>
<path d="M164.305 27.255H109.716C108.888 27.255 108.216 27.9268 108.216 28.7554V74.5474C108.216 75.376 108.888 76.0478 109.716 76.0478H164.305C165.134 76.0478 165.805 75.376 165.805 74.5474V28.7554C165.805 27.9268 165.134 27.255 164.305 27.255Z" fill="#65617D"/>
<path d="M163.27 30.5402H110.934V71.1694H163.27V30.5402Z" fill="#DAC493"/>
<path opacity="0.1" d="M208.76 73.9844V75.0513L203.413 75.161V73.9844H208.76Z" fill="black"/>
<path d="M232.882 73.0836C232.889 73.2002 232.873 73.3172 232.835 73.4275C232.796 73.5378 232.735 73.6391 232.656 73.7253C232.578 73.8116 232.482 73.881 232.376 73.9294C232.269 73.9777 232.154 74.0041 232.038 74.0069L179.364 75.0963C179.146 75.1009 178.933 75.0224 178.77 74.8767C178.607 74.731 178.504 74.5289 178.484 74.3109L173.956 27.2213C173.945 27.1044 173.958 26.9866 173.994 26.8748C174.029 26.763 174.087 26.6596 174.164 26.5709C174.241 26.4822 174.335 26.41 174.441 26.3587C174.546 26.3075 174.661 26.2782 174.778 26.2726L227.052 23.6715L227.614 23.6434C227.838 23.6316 228.058 23.7072 228.227 23.8543C228.396 24.0013 228.501 24.2083 228.52 24.4316L232.882 73.0836Z" fill="#65617D"/>
<path d="M176.964 29.0397L224.705 26.692L228.737 69.4803L181.373 70.6063L176.964 29.0397Z" fill="#DAC493"/>
<path opacity="0.1" d="M232.882 73.0836C232.889 73.2002 232.873 73.3172 232.835 73.4275C232.796 73.5377 232.735 73.639 232.656 73.7253C232.578 73.8115 232.482 73.8809 232.376 73.9293C232.269 73.9777 232.154 74.0041 232.038 74.0069L227.052 23.6715L227.614 23.6434C227.838 23.6316 228.058 23.7072 228.227 23.8543C228.396 24.0013 228.501 24.2083 228.52 24.4316L232.882 73.0836Z" fill="black"/>
<path opacity="0.1" d="M47.3355 24.516L40.9849 75.2652L40.0085 75.2399C39.8385 75.2358 39.6713 75.196 39.5177 75.123C39.3641 75.0499 39.2277 74.9453 39.1172 74.8159C39.0068 74.6866 38.9248 74.5354 38.8767 74.3722C38.8286 74.2091 38.8154 74.0376 38.838 73.8689L46.0496 25.5407C46.0955 25.2392 46.2535 24.9663 46.4919 24.7763C46.7303 24.5863 47.0316 24.4934 47.3355 24.516Z" fill="black"/>
<path opacity="0.1" d="M64.8848 86.255H59.5387V91.0631H64.8848V86.255Z" fill="black"/>
<path opacity="0.1" d="M83.8775 136.148V137.548L70.6051 137.902V136.148H83.8775Z" fill="black"/>
<path d="M107.302 87.93V135.279C107.298 135.568 107.184 135.844 106.982 136.051C106.781 136.258 106.507 136.38 106.219 136.391L52.2933 137.826H52.2792C51.9856 137.823 51.705 137.704 51.4973 137.496C51.2897 137.289 51.1714 137.008 51.1678 136.714V87.93C51.1714 87.6362 51.2897 87.3555 51.4973 87.1477C51.705 86.94 51.9856 86.8217 52.2792 86.818H106.19C106.484 86.8217 106.765 86.94 106.972 87.1477C107.18 87.3555 107.298 87.6362 107.302 87.93Z" fill="#65617D"/>
<path opacity="0.1" d="M52.2933 86.818V137.826H52.2792C51.9856 137.823 51.705 137.704 51.4973 137.496C51.2897 137.289 51.1714 137.008 51.1678 136.714V87.93C51.1714 87.6362 51.2897 87.3555 51.4973 87.1477C51.705 86.94 51.9856 86.8217 52.2792 86.818H52.2933Z" fill="black"/>
<path d="M54.7553 89.8414H104.699V131.574L54.7553 132.7V89.8414Z" fill="#D4DFEC"/>
<path opacity="0.1" d="M208.76 86.255H203.413V91.1588H208.76V86.255Z" fill="black"/>
<path opacity="0.1" d="M204.305 136.148V137.953L191.033 137.598V136.148H204.305Z" fill="black"/>
<path d="M221.821 87.93V136.714C221.817 137.01 221.697 137.293 221.486 137.501C221.276 137.71 220.991 137.826 220.695 137.826L166.759 136.391C166.47 136.38 166.197 136.258 165.995 136.051C165.793 135.844 165.679 135.568 165.676 135.279V87.93C165.679 87.6362 165.798 87.3555 166.005 87.1477C166.213 86.94 166.493 86.8217 166.787 86.818H220.698C220.994 86.8187 221.277 86.9358 221.487 87.1438C221.697 87.3519 221.817 87.6342 221.821 87.93Z" fill="#65617D"/>
<path opacity="0.1" d="M221.821 87.93V136.714C221.817 137.01 221.697 137.293 221.486 137.501C221.276 137.71 220.992 137.826 220.695 137.826V86.818C220.992 86.818 221.276 86.9347 221.486 87.1428C221.697 87.351 221.817 87.6338 221.821 87.93Z" fill="black"/>
<path d="M218.233 89.8414H168.29V131.574L218.233 132.7V89.8414Z" fill="#D4DFEC"/>
<path d="M164.28 87.93V135.279C164.277 135.568 164.162 135.844 163.961 136.051C163.759 136.258 163.485 136.38 163.197 136.391L109.271 137.826C108.975 137.826 108.691 137.71 108.481 137.501C108.27 137.293 108.15 137.01 108.146 136.714V87.93C108.15 87.6362 108.268 87.3555 108.476 87.1477C108.683 86.94 108.964 86.8217 109.257 86.818H163.169C163.462 86.8217 163.743 86.94 163.95 87.1477C164.158 87.3555 164.276 87.6362 164.28 87.93Z" fill="#65617D"/>
<path d="M111.733 89.8414H161.677V131.574L111.733 132.7V89.8414Z" fill="#D4DFEC"/>
<path opacity="0.1" d="M242.854 150.224V153.883L200.107 154.277L199.652 154.286L183.405 154.435L183.017 154.44L178.079 154.483H177.932L147.831 154.761L98.4189 155.22H98.3767L85.8134 155.338L85.6783 155.341L29.8538 155.854V151.631L86.8347 151.257H86.9698L98.5033 151.178H98.5568L178.208 150.651H178.29L178.337 150.649H178.47L179.818 150.64H180.228L201.188 150.499L202.426 150.494L202.702 150.491L242.854 150.224Z" fill="black"/>
<path d="M137.102 91.0631C145.079 91.0631 151.545 84.5938 151.545 76.6136C151.545 68.6334 145.079 62.1641 137.102 62.1641C129.126 62.1641 122.659 68.6334 122.659 76.6136C122.659 84.5938 129.126 91.0631 137.102 91.0631Z" fill="#FBBEBE"/>
<path d="M151.548 106.171C151.548 106.171 123.551 109.549 126.224 106.171C127.192 104.95 127.459 101.329 127.406 97.2055C127.389 95.9528 127.344 94.6551 127.279 93.363C126.97 87.1699 126.224 81.1176 126.224 81.1176C126.224 81.1176 150.704 69.5761 147.89 78.7249C146.764 82.421 147.133 87.6119 147.988 92.4847C148.239 93.9063 148.529 95.2997 148.833 96.6228C149.574 99.8499 150.48 103.037 151.548 106.171Z" fill="#FBBEBE"/>
<path opacity="0.1" d="M151.548 106.171C151.548 106.171 123.551 109.549 126.224 106.171C127.192 104.95 127.459 101.33 127.406 97.2055C131.674 95.3814 137.105 96.741 137.105 96.741C142.822 95.601 146.489 95.8233 148.833 96.6228C149.574 99.8499 150.48 103.037 151.548 106.171Z" fill="black"/>
<path d="M98.4076 155.538V155.302L147.822 154.764L177.929 154.483H178.014L177.983 154.899L178.025 154.483H178.079V154.435L178.464 150.649L178.61 149.216L178.655 148.768L178.695 148.394L180.434 142.592L182.173 136.799L183.636 131.92L185.87 124.466C185.87 124.466 184.604 121.51 183.9 120.666C183.197 119.821 182.493 114.051 182.493 114.051C182.493 114.051 176.489 108.328 173.864 107.669C172.763 107.387 170.591 107.013 168.284 106.543C167.42 106.368 166.534 106.183 165.681 105.98C165.2 105.87 164.727 105.755 164.274 105.639C163.393 105.419 162.524 105.15 161.672 104.834C161.225 104.672 160.8 104.455 160.405 104.19C158.337 102.672 153.155 102.501 152.955 102.501C152.954 102.494 152.954 102.487 152.955 102.481V102.456C152.962 102.337 152.962 102.219 152.955 102.101C152.955 101.988 152.955 101.856 152.929 101.707C152.929 101.662 152.929 101.614 152.91 101.566C152.896 101.465 152.879 101.358 152.853 101.245C152.845 101.195 152.834 101.145 152.82 101.096C152.738 100.757 152.62 100.427 152.468 100.113C152.448 100.068 152.423 100.021 152.4 99.9755C152.262 99.7155 152.102 99.4678 151.922 99.2351C151.886 99.1873 151.846 99.1366 151.804 99.0888C151.573 98.8169 151.317 98.568 151.039 98.3456C150.963 98.2865 150.884 98.2246 150.802 98.1683C150.757 98.1313 150.709 98.0975 150.659 98.0669L150.408 97.9036L150.175 97.7685C149.969 97.6559 149.753 97.5461 149.516 97.442C149.443 97.4082 149.364 97.3772 149.286 97.3463C149.207 97.3153 149.083 97.2674 148.979 97.228H148.962L148.751 97.1436C148.591 97.0901 148.427 97.0422 148.256 96.9944L147.994 96.9268L147.713 96.8621L147.431 96.803C147.15 96.7467 146.849 96.696 146.534 96.6566L146.213 96.6172L145.884 96.5834L145.543 96.5552L145.059 96.5271L144.497 96.5074C142.015 96.5072 139.54 96.7704 137.113 97.2928C135.428 96.9175 133.701 96.7586 131.976 96.8198H131.731L131.449 96.8367H131.269L130.906 96.8705C130.785 96.8705 130.661 96.8959 130.541 96.9127C130.42 96.9296 130.293 96.9437 130.172 96.9634L129.986 96.9944C129.803 97.0253 129.618 97.0591 129.423 97.0985C129.362 97.1098 129.3 97.1239 129.238 97.1408C128.993 97.1943 128.748 97.259 128.506 97.3322C128.385 97.366 128.264 97.4054 128.143 97.4476C128.081 97.4645 128.022 97.487 127.963 97.5095L127.783 97.5743L127.606 97.6447L127.395 97.7291C127.288 97.7742 127.184 97.822 127.08 97.8727C127.021 97.898 126.961 97.9262 126.905 97.9571C126.849 97.9881 126.79 98.0134 126.736 98.0444C126.1 98.3733 125.512 98.7882 124.989 99.2774L124.845 99.4153L124.705 99.5589C124.657 99.6067 124.612 99.6574 124.567 99.7081C124.384 99.9086 124.213 100.12 124.055 100.341C124.01 100.401 123.968 100.46 123.925 100.522C123.747 100.785 123.585 101.06 123.441 101.344C123.405 101.411 123.371 101.482 123.337 101.549C123.108 102.025 122.919 102.519 122.775 103.027C122.722 103.215 122.674 103.402 122.631 103.59C122.631 103.59 116.674 106.219 111.733 108.122C110.419 108.629 109.181 109.088 108.146 109.434C107.845 109.535 107.564 109.628 107.302 109.715C106.734 109.921 106.144 110.057 105.543 110.121C105.26 110.125 104.978 110.152 104.699 110.2C102.428 110.568 98.5371 112.17 98.1122 113.778C98.0777 113.906 98.0681 114.04 98.0841 114.172C98.0841 114.172 98.0841 114.191 98.0841 114.203C98.3654 116.173 96.3958 115.892 96.3958 115.892C96.3958 115.892 95.6924 121.099 94.7076 122.507C93.9957 123.52 93.5089 125.781 93.447 127.487C93.4116 128.018 93.4533 128.552 93.5708 129.072C93.5708 129.086 93.5708 129.1 93.5708 129.111C93.6834 129.488 93.4133 130.518 92.9546 131.839C92.4566 133.288 91.7306 135.09 91.0328 136.79C89.9805 139.358 88.9901 141.688 88.9282 142.201C88.9028 142.429 88.8297 142.837 88.7284 143.363C88.3176 145.508 87.4059 149.593 86.9557 151.245C86.6209 152.478 86.1341 154.167 85.7993 155.327C85.7993 155.361 85.7796 155.395 85.7711 155.426L98.3851 155.302V155.538H98.4245H98.4076Z" fill="#DAC493"/>
<path opacity="0.1" d="M103.011 122.358C103.011 122.358 119.049 130.662 124.817 129.677L103.011 122.358Z" fill="black"/>
<path opacity="0.1" d="M135.65 118.98C135.65 118.98 151.267 124.047 156.472 124.75C161.677 125.454 135.65 118.98 135.65 118.98Z" fill="black"/>
<path opacity="0.1" d="M152.972 102.675C144.812 104.178 129.449 103.855 122.808 103.627C125.242 94.9 137.111 97.867 137.111 97.867C151.801 94.9338 152.927 101.02 152.972 102.675Z" fill="black"/>
<path d="M152.972 102.112C144.812 103.615 129.449 103.292 122.808 103.064C125.242 94.337 137.111 97.304 137.111 97.304C151.801 94.3707 152.927 100.457 152.972 102.112Z" fill="#DAC493"/>
<path d="M196.286 140.585C196.286 140.585 205.898 139.107 206.087 143.33C206.275 147.552 201.185 150.502 201.185 150.502L196.286 140.585Z" fill="#FBBEBE"/>
<path opacity="0.1" d="M147.988 92.4847C147.575 92.6695 147.152 92.833 146.722 92.9745C143.689 94.0217 140.631 95.0773 137.437 95.4602C134.243 95.843 130.892 95.5052 128.107 93.9119C127.814 93.7466 127.532 93.5633 127.262 93.363C126.953 87.1699 126.207 81.1176 126.207 81.1176C126.207 81.1176 150.687 69.5761 147.873 78.7249C146.753 82.421 147.133 87.6119 147.988 92.4847Z" fill="black"/>
<path d="M133.14 54.0287C132.739 54.1348 132.318 54.1455 131.912 54.06C131.505 53.9745 131.124 53.795 130.799 53.5361L131.385 54.3496C131.04 54.3894 130.69 54.3534 130.361 54.244C130.031 54.1346 129.73 53.9545 129.477 53.7162C129.424 54.4445 129.454 55.1765 129.567 55.8979C128.599 55.9446 127.645 55.6453 126.877 55.0534C126.862 55.3073 126.925 55.5598 127.058 55.7767C127.191 55.9936 127.387 56.1646 127.62 56.2666C126.647 56.1504 125.665 56.3922 124.858 56.9469C124.05 57.5017 123.471 58.3315 123.23 59.2815L124.699 59.4167C123.545 59.6633 122.509 60.2957 121.762 61.2098C121.311 61.7728 120.968 62.4935 121.165 63.1803C121.362 63.8672 122.313 64.3063 122.831 63.8165C122.094 64.6959 121.559 65.7259 121.263 66.8341C120.966 67.9424 120.916 69.1021 121.114 70.232C121.248 70.7134 121.292 71.2153 121.244 71.7127C121.151 72.1771 120.858 72.5797 120.712 73.0329C120.431 73.8549 120.698 74.7473 120.948 75.5664L122.268 79.9072C122.746 81.4751 123.222 83.0459 123.847 84.5632C124.289 85.5225 124.665 86.511 124.972 87.5218C125.327 88.8843 125.341 90.3762 126.098 91.567C126.616 92.3163 127.31 92.9279 128.118 93.3489C130.901 94.9422 134.263 95.28 137.448 94.8972C140.633 94.5143 143.689 93.4587 146.719 92.4115C147.393 92.2086 148.039 91.9251 148.644 91.567C150.74 90.1933 151.207 87.3839 151.599 84.9095C152.035 82.1508 152.617 79.3977 153.65 76.8022C154.263 75.2568 155.057 73.6888 154.922 72.0336C154.75 69.835 153.011 68.0531 152.58 65.8912C152.436 65.1685 152.443 64.4239 152.6 63.7039C152.734 63.275 152.808 62.8299 152.822 62.3809C152.775 61.4744 152.032 60.7763 151.334 60.1936C149.82 58.9287 148.258 57.7333 146.646 56.6073C146.565 56.0443 147.33 55.8022 147.676 55.3574C148.166 54.7296 147.659 53.7331 146.916 53.4404C146.174 53.1476 145.341 53.339 144.567 53.5333C144.617 53.137 144.539 52.7351 144.342 52.3872C144.146 52.0393 143.843 51.7641 143.478 51.6025C143.113 51.4409 142.705 51.4015 142.316 51.4902C141.927 51.5789 141.576 51.7909 141.317 52.0948C141.112 51.6234 140.783 51.2158 140.367 50.9148C139.95 50.6137 139.46 50.4301 138.948 50.3833C137.082 50.2369 137.046 51.6641 135.853 52.4495C134.66 53.2349 133.675 52.1989 132.758 51.4445C132.589 51.871 132.536 52.3343 132.603 52.7879C132.67 53.2415 132.856 53.6695 133.14 54.0287Z" fill="#3F3D56"/>
<path d="M203.413 149.03C203.413 149.03 203.163 149.627 202.702 150.491C202.004 151.821 201.154 153.065 200.169 154.198L200.093 154.28H199.637L183.391 154.429H183.003L182.955 154.373L179.803 150.632L178.616 149.221L178.568 149.162L178.467 149.044L178.411 148.977L178.337 148.889L176.027 146.147L176.871 142.629L178.309 136.7L178.346 136.557L178.627 135.431L178.827 134.586L179.497 131.833L181.793 122.361L185.873 124.472L190.175 132.072L192.485 136.154H193.751C193.99 136.154 194.539 136.616 195.09 137.148C195.287 137.336 195.484 137.536 195.653 137.711C196.154 138.229 196.551 138.674 196.551 138.674C196.551 138.674 198.602 138.719 199.153 140.334C199.182 140.413 199.205 140.493 199.224 140.574C199.407 141.209 199.645 141.827 199.936 142.42C200.299 143.211 200.754 144.109 201.216 145.007C202.074 146.654 202.946 148.222 203.267 148.791L203.307 148.861L203.413 149.03Z" fill="#DAC493"/>
<path opacity="0.1" d="M179.244 136.32L179.215 136.723V136.751L179.168 137.398L178.793 142.609L178.34 148.886L178.211 150.654L177.929 154.438V154.486L147.822 154.767L98.4161 155.302V155.538H98.3767V155.302V155.223L98.5033 151.181L98.7453 143.282L98.9535 136.585L98.9732 135.918C98.9855 135.515 99.0797 135.119 99.2501 134.754C99.4205 134.389 99.6635 134.063 99.9642 133.795C100.265 133.527 100.617 133.323 100.999 133.196C101.381 133.068 101.785 133.021 102.186 133.055C103.515 133.167 105.239 133.305 107.302 133.452L108.146 133.514C120.057 134.341 142.068 135.411 164.28 134.077C164.747 134.051 165.217 134.023 165.687 133.989C169.131 133.773 172.572 133.494 175.98 133.145C176.41 133.1 176.846 133.15 177.255 133.291C177.665 133.432 178.038 133.662 178.349 133.963C178.66 134.265 178.902 134.631 179.056 135.035C179.211 135.44 179.275 135.874 179.244 136.306V136.32Z" fill="black"/>
<path d="M98.4076 155.538V155.302L147.822 154.764L177.929 154.483H178.014V154.435L178.295 150.651L178.416 148.962L178.878 142.598L179.241 137.559V137.435C179.257 137.203 179.247 136.969 179.21 136.74C179.211 136.73 179.211 136.721 179.21 136.711C179.132 136.236 178.939 135.788 178.647 135.405C178.337 135.008 177.931 134.696 177.467 134.499C177.004 134.302 176.497 134.226 175.996 134.279C172.589 134.628 169.148 134.907 165.704 135.124C165.234 135.158 164.764 135.186 164.297 135.211C142.085 136.531 120.073 135.462 108.163 134.648L107.319 134.586C105.256 134.44 103.531 134.305 102.203 134.189C101.473 134.128 100.745 134.339 100.161 134.782C99.5771 135.226 99.1779 135.87 99.0407 136.59C99.0123 136.743 98.9954 136.897 98.9901 137.052L98.7987 143.29L98.5371 151.192L98.4133 155.234V155.313V155.55L98.4076 155.538Z" fill="#3F3D56"/>
<path opacity="0.1" d="M179.328 138.293L178.982 142.609L178.467 149.041L178.337 150.651L178.056 154.258L178.039 154.438V154.486L177.997 154.902L178.028 154.486H177.946L147.839 154.767L98.416 155.302V155.223L98.5539 151.181L98.8353 143.282L99.0154 138.032C99.0242 137.733 99.1076 137.441 99.258 137.183C99.4084 136.925 99.621 136.709 99.8764 136.554C100.195 136.358 100.568 136.27 100.94 136.3C101.531 136.348 102.257 136.405 103.104 136.467C104.48 136.568 106.176 136.686 108.152 136.81C111.809 137.041 116.399 137.289 121.658 137.491C136.289 138.054 156.041 138.243 174.803 136.599C175.648 136.526 176.52 136.444 177.372 136.362C177.71 136.329 178.05 136.393 178.352 136.548C178.437 136.591 178.518 136.642 178.594 136.7C178.838 136.878 179.033 137.117 179.156 137.393C179.185 137.448 179.209 137.505 179.227 137.564C179.311 137.798 179.346 138.046 179.328 138.293Z" fill="black"/>
<path opacity="0.1" d="M83.8775 142.147V143.045C83.8777 143.372 83.7852 143.692 83.6109 143.968C83.4366 144.244 83.1875 144.465 82.8927 144.605L71.6096 144.822C71.3096 144.684 71.0554 144.463 70.8773 144.185C70.6992 143.907 70.6048 143.584 70.6051 143.254V142.409L83.8775 142.147Z" fill="black"/>
<path d="M84.0182 145.134L69.3164 145.415V142.975L84.0182 142.693V145.134Z" fill="#3F3D56"/>
<path opacity="0.1" d="M84.0182 145.134L69.3164 145.415V142.975L84.0182 142.693V145.134Z" fill="black"/>
<path d="M84.5809 145.134L69.8792 145.415V142.975L84.5809 142.693V145.134Z" fill="#3F3D56"/>
<g opacity="0.1">
<path opacity="0.1" d="M133.256 53.1054C132.981 52.748 132.798 52.3284 132.724 51.8836C132.656 52.3184 132.697 52.7632 132.842 53.1786C132.982 53.1657 133.12 53.1412 133.256 53.1054Z" fill="black"/>
<path opacity="0.1" d="M129.682 54.9745C129.629 54.6294 129.594 54.2818 129.578 53.933C129.578 54.2792 129.578 54.6283 129.578 54.9774L129.682 54.9745Z" fill="black"/>
<path opacity="0.1" d="M152.614 64.3682C152.63 64.1174 152.664 63.8681 152.716 63.6223C152.849 63.1941 152.924 62.7501 152.941 62.302C152.934 62.2014 152.919 62.1016 152.896 62.0036C152.848 62.2626 152.772 62.5216 152.716 62.7778C152.603 63.3 152.569 63.836 152.614 64.3682Z" fill="black"/>
<path opacity="0.1" d="M146.762 55.6698L147.068 55.8922C147.327 55.7051 147.569 55.496 147.792 55.2673C147.897 55.1208 147.963 54.949 147.982 54.7692C148.001 54.5894 147.972 54.4078 147.898 54.2426C147.87 54.3069 147.834 54.3674 147.792 54.4228C147.445 54.8675 146.68 55.1125 146.762 55.6698Z" fill="black"/>
<path opacity="0.1" d="M123.641 58.3779C123.539 58.5832 123.457 58.7982 123.396 59.0197C123.837 58.7739 124.311 58.5946 124.803 58.4877L123.641 58.3779Z" fill="black"/>
<path opacity="0.1" d="M127.521 55.3151C127.337 55.2133 127.16 55.0975 126.992 54.9689C126.985 55.0802 126.994 55.192 127.018 55.301C127.186 55.293 127.354 55.2977 127.521 55.3151Z" fill="black"/>
<path opacity="0.1" d="M155.031 71.9012C154.916 73.2665 154.28 74.5812 153.765 75.8761C152.732 78.4715 152.15 81.2246 151.714 83.9861C151.323 86.4605 150.87 89.2699 148.759 90.6408C148.156 91.0012 147.511 91.2849 146.838 91.4853C143.804 92.5354 140.746 93.5882 137.552 93.971C134.359 94.3539 131.008 94.0189 128.222 92.4256C127.414 92.0039 126.721 91.3925 126.202 90.6437C125.45 89.4529 125.436 87.9609 125.076 86.5985C124.769 85.5868 124.393 84.5973 123.951 83.6371C123.329 82.1226 122.851 80.5405 122.375 78.9838C121.934 77.5369 121.494 76.0891 121.055 74.6403C120.911 74.2044 120.804 73.7571 120.735 73.3031C120.625 74.0238 120.839 74.7782 121.055 75.4848C121.494 76.9354 121.934 78.3833 122.375 79.8283C122.851 81.3963 123.329 82.9671 123.951 84.4816C124.393 85.4418 124.769 86.4313 125.076 87.443C125.431 88.8055 125.445 90.2974 126.202 91.4882C126.721 92.237 127.414 92.8485 128.222 93.2701C131.008 94.8634 134.367 95.1984 137.552 94.8155C140.737 94.4327 143.793 93.3799 146.838 92.3299C147.511 92.1294 148.156 91.8457 148.759 91.4853C150.856 90.1144 151.323 87.305 151.714 84.8306C152.15 82.0691 152.732 79.316 153.765 76.7206C154.378 75.1779 155.172 73.61 155.037 71.9519C155.037 71.935 155.031 71.9181 155.031 71.9012Z" fill="black"/>
<path opacity="0.1" d="M121.354 70.8118C121.354 70.8118 121.354 70.7921 121.354 70.7809C121.404 70.2845 121.36 69.783 121.224 69.303C121.168 68.9941 121.131 68.6819 121.114 68.3684C121.082 68.9637 121.119 69.5607 121.224 70.1475C121.269 70.3671 121.32 70.5895 121.354 70.8118Z" fill="black"/>
<path opacity="0.1" d="M122.212 63.9263C122.428 63.5626 122.674 63.2171 122.946 62.8932C122.431 63.3858 121.48 62.9467 121.28 62.2626C121.207 62.5393 121.207 62.8305 121.28 63.1071C121.35 63.3137 121.472 63.4983 121.636 63.6421C121.799 63.786 121.998 63.884 122.212 63.9263Z" fill="black"/>
</g>
<path opacity="0.1" d="M192.488 136.151C192.488 136.151 193.38 139.389 192.488 142.204C191.596 145.019 192.488 136.151 192.488 136.151Z" fill="black"/>
<path opacity="0.1" d="M196.286 139.453C196.286 139.453 196.66 143.563 195.816 144.292C194.972 145.021 196.286 139.453 196.286 139.453Z" fill="black"/>
<path d="M55.9905 96.5158L84.5809 96.2343" stroke="#DAC493" stroke-width="2" stroke-miterlimit="10"/>
<path d="M55.9905 100.026L84.5809 99.7474" stroke="#DAC493" stroke-width="2" stroke-miterlimit="10"/>
<path d="M55.9905 103.539L84.5809 103.258" stroke="#DAC493" stroke-width="2" stroke-miterlimit="10"/>
</g>
<defs>
<clipPath id="clip0">
<rect width="293" height="156" fill="white"/>
</clipPath>
</defs>
</svg>
